<svg width="67" height="222" viewBox="0 0 67 222" fill="none" xmlns="http://www.w3.org/2000/svg">
<path d="M-7.62939e-06 222L55.8333 222L55.8333 205.35L33.2208 205.35C43.8292 192.4 52.1111 177.922 58.0667 161.916C64.0222 145.917 67 128.945 67 111C67 80.29 59.8831 55.13 45.6493 35.52C31.4081 15.91 16.1917 4.07001 2.07453e-06 -2.92866e-06L1.31035e-06 17.4825C11.1667 21.7375 22.3333 31.7719 33.5 47.5857C44.6667 63.4069 50.25 84.545 50.25 111C50.25 127.835 47.2722 143.697 41.3167 158.586C35.3611 173.482 27.1722 186.85 16.75 198.69L16.75 166.5L-5.20341e-06 166.5L-7.62939e-06 222Z" fill="#0A5757"/>
</svg>
