
<svg width="1445" height="1785" viewBox="0 0 1445 1785" fill="none" xmlns="http://www.w3.org/2000/svg">
<g style="mix-blend-mode:overlay">
<path d="M406.451 1607.6L381.414 1645.25H23.037L-2 1607.6L23.037 1569.94H381.414L406.451 1607.6ZM380.33 1643.61L404.259 1607.6L380.33 1571.58H24.1201L0.191366 1607.6L24.1201 1643.61H380.33Z" fill="white"/>
<path d="M245.573 1451.94V1763.25L202.224 1785L158.875 1763.25V1451.94L202.224 1430.19L245.573 1451.94ZM243.683 1762.31V1452.84L202.224 1432.05L160.764 1452.84V1762.31L202.224 1783.1L243.683 1762.31Z" fill="white"/>
<path d="M359.598 1691.02L346.626 1733.03L298.265 1744.3L297.887 1743.95L44.8477 1524.17L57.8195 1482.16L106.307 1470.89L106.684 1471.24L359.598 1691.02ZM345.09 1731.7L357.483 1691.53L105.601 1472.73L59.356 1483.47L46.9635 1523.64L298.845 1742.44L345.09 1731.7Z" fill="white"/>
<path d="M359.601 1524.17L359.198 1524.49L106.31 1744.3L57.9484 1733.03L44.9766 1691.02L45.3796 1690.7L298.268 1470.89L346.629 1482.16L359.601 1524.17ZM105.604 1742.46L357.486 1523.66L345.093 1483.47L298.848 1472.7L46.9664 1691.51L59.359 1731.68L105.604 1742.46Z" fill="white"/>
<path d="M331.44 1607.6L266.832 1704.81H137.617L73.0098 1607.6L137.617 1510.38H266.832L331.44 1607.6ZM265.749 1703.17L329.274 1607.6L265.749 1512.02H138.7L75.1759 1607.6L138.7 1703.17H265.749Z" fill="white"/>
<path d="M299.25 1558.93V1656.32L202.226 1704.92L105.201 1656.32V1558.93L202.226 1510.27L299.25 1558.93ZM297.361 1655.21V1559.87L202.226 1512.15L107.09 1559.87V1655.32L202.226 1703.04L297.361 1655.21Z" fill="white"/>
<path d="M406.451 1321.78L381.414 1359.43H23.037L-2 1321.78L23.037 1284.1H381.414L406.451 1321.78ZM380.33 1357.79L404.259 1321.78L380.33 1285.74H24.1201L0.191366 1321.78L24.1201 1357.79H380.33Z" fill="white"/>
<path d="M245.573 1166.21V1477.43L202.224 1499.18L158.875 1477.43V1166.21L202.224 1144.33L245.573 1166.21ZM243.683 1476.58V1167.06L202.224 1146.25L160.764 1167.06V1476.49L202.224 1497.28L243.683 1476.58Z" fill="white"/>
<path d="M359.598 1405.2L346.626 1447.21L298.265 1458.48L297.887 1458.13L44.8477 1238.41L57.8195 1196.4L106.307 1185.07L106.684 1185.4L359.598 1405.2ZM345.09 1445.88L357.483 1405.71L105.601 1186.91L59.356 1197.67L46.9635 1237.84L298.845 1456.64L345.09 1445.88Z" fill="white"/>
<path d="M359.601 1238.41L359.198 1238.74L106.31 1458.48L57.9484 1447.21L44.9766 1405.2L45.3796 1404.88L298.268 1185.07L346.629 1196.34L359.601 1238.41ZM105.604 1456.64L357.486 1237.84L345.093 1197.67L298.848 1186.91L46.9664 1405.71L59.359 1445.88L105.604 1456.64Z" fill="white"/>
<path d="M331.44 1321.78L266.832 1418.99H137.617L73.0098 1321.78L137.617 1224.56H266.832L331.44 1321.78ZM265.749 1417.35L329.274 1321.78L265.749 1226.2H138.7L75.1759 1321.78L138.7 1417.35H265.749Z" fill="white"/>
<path d="M299.25 1273.11V1370.44L202.226 1419.1L105.201 1370.44V1273.11L202.226 1224.43L299.25 1273.11ZM297.361 1369.39V1274.06L202.226 1226.34L107.09 1274.06V1369.5L202.226 1417.22L297.361 1369.39Z" fill="white"/>
<path d="M406.451 1035.96L381.414 1073.61H23.037L-2 1035.96L23.037 998.278H381.414L406.451 1035.96ZM380.33 1071.97L404.259 1035.96L380.33 999.919H24.1201L0.191366 1035.96L24.1201 1071.97H380.33Z" fill="white"/>
<path d="M245.573 880.301V1191.61L202.224 1213.36L158.875 1191.61V880.301L202.224 858.552L202.702 858.792L245.573 880.301ZM243.683 1190.67V881.241L202.224 860.433L160.764 881.241V1190.67L202.224 1211.46L243.683 1190.67Z" fill="white"/>
<path d="M359.598 1119.39L346.626 1161.39L298.265 1172.64L297.887 1172.31L44.8477 952.528L57.8195 910.496L106.307 899.271L106.684 899.6L359.598 1119.39ZM345.09 1160.06L357.483 1119.89L105.601 901.088L59.356 911.853L46.9635 952.024L298.845 1170.83L345.09 1160.06Z" fill="white"/>
<path d="M359.598 952.528L359.195 952.856L106.307 1172.64L57.9455 1161.39L44.8477 1119.39L45.2507 1119.06L298.265 899.271L346.626 910.518L359.598 952.528ZM105.601 1170.83L357.483 952.024L345.09 911.853L298.845 901.088L46.9635 1119.89L59.356 1160.06L105.601 1170.83Z" fill="white"/>
<path d="M331.44 1035.96L266.832 1133.17H137.617L73.0098 1035.96L137.617 938.656H266.832L331.44 1035.96ZM265.749 1131.53L329.274 1035.96L265.749 940.385H138.7L75.1759 1035.96L138.7 1131.53H265.749Z" fill="white"/>
<path d="M299.25 987.296V1084.62L202.226 1133.39L105.201 1084.62V987.296L202.226 938.656L299.25 987.296ZM297.361 1083.57V988.237L202.226 940.516L107.09 988.237V1083.68L202.226 1131.38L297.361 1083.57Z" fill="white"/>
<path d="M406.451 750.137L381.414 787.793H23.037L-2 750.137L23.037 712.46H381.414L406.451 750.137ZM380.33 786.152L404.259 750.137L380.33 714.101H24.1201L0.191366 750.137L24.1201 786.152H380.33Z" fill="white"/>
<path d="M245.573 594.482V905.836L202.224 927.585L158.875 905.836V594.482L202.224 572.733L202.702 572.974L245.573 594.482ZM243.683 904.851V595.423L202.224 574.615L160.764 595.423V904.851L202.224 925.637L243.683 904.851Z" fill="white"/>
<path d="M359.598 833.632L346.626 875.642L298.265 886.888L297.887 886.56L44.8477 666.709L57.8195 624.677L106.307 613.431L106.684 613.759L359.598 833.632ZM345.09 874.307L357.483 834.113L105.601 615.312L59.356 626.077L46.9635 666.249L298.845 885.05L345.09 874.307Z" fill="white"/>
<path d="M359.598 666.709L106.307 886.822L57.9455 875.576L44.8477 833.632L298.265 613.431L346.626 624.677L359.598 666.709ZM105.601 885.006L357.483 666.205L345.09 626.034L298.845 615.269L46.9635 834.07L59.356 874.263L105.601 885.006Z" fill="white"/>
<path d="M331.44 750.138L266.832 847.351H137.617L73.0098 750.138L137.617 652.925H266.832L331.44 750.138ZM265.749 845.71L329.274 750.138L265.749 654.566H138.7L75.1759 750.138L138.7 845.71H265.749Z" fill="white"/>
<path d="M299.25 701.453V798.798L202.226 847.459L201.747 847.218L105.201 798.798V701.453L202.226 652.792L202.704 653.033L299.25 701.453ZM297.361 797.857V702.35L202.226 654.696L107.09 702.35V797.791L202.226 845.512L297.361 797.857Z" fill="white"/>
<path d="M406.451 464.317L381.414 501.972H23.037L-2 464.317L23.037 426.661H381.414L406.451 464.317ZM380.33 500.331L404.259 464.317L380.33 428.28H24.1201L0.191366 464.317L24.1201 500.331H380.33Z" fill="white"/>
<path d="M245.577 308.64V619.972L202.228 641.721L201.749 641.48L158.93 619.972V308.64L202.278 286.913L202.757 287.132L245.577 308.64ZM243.688 619.031V309.603L202.228 288.817L160.768 309.603V619.031L202.228 639.817L243.688 619.031Z" fill="white"/>
<path d="M359.598 547.747L346.626 589.757L298.265 601.003L297.887 600.675L44.8477 380.867L57.8195 338.858L106.307 327.611L106.684 327.94L359.598 547.747ZM345.09 588.422L357.483 548.228L105.601 329.427L59.356 340.192L46.9635 380.364L298.845 599.165L345.09 588.422Z" fill="white"/>
<path d="M359.601 380.867L106.31 601.003L57.9484 589.757L44.9766 547.747L298.268 327.611L346.629 338.858L359.601 380.867ZM105.604 599.187L357.486 380.386L345.093 340.214L298.848 329.449L46.9664 548.25L59.359 588.444L105.604 599.187Z" fill="white"/>
<path d="M331.44 464.319L266.832 561.532H137.617L73.0098 464.319L137.617 367.105H266.832L331.44 464.319ZM265.749 559.891L329.274 464.319L265.749 368.746H138.7L75.1759 464.319L138.7 559.891H265.749Z" fill="white"/>
<path d="M299.25 415.722V513.066L202.226 561.64L201.747 561.399L105.201 512.979V415.722L202.226 367.061L202.704 367.301L299.25 415.722ZM297.361 511.994V416.597L202.226 368.877L107.09 416.597V511.994L202.226 559.715L297.361 511.994Z" fill="white"/>
<path d="M406.451 177.404L381.414 215.059H23.037L-2 177.404L23.037 139.748H381.414L406.451 177.404ZM380.33 213.418L404.259 177.404L380.33 141.389H24.1201L0.191366 177.404L24.1201 213.418H380.33Z" fill="white"/>
<path d="M245.577 21.7488V333.059L202.228 354.808L201.749 354.567L158.93 333.059V21.7488L202.228 0L202.707 0.240681L245.577 21.7488ZM243.688 332.118V22.6897L202.228 1.90357L160.768 22.6897V332.118L202.228 352.904L243.688 332.118Z" fill="white"/>
<path d="M359.598 260.832L346.626 302.842L298.265 314.11L297.887 313.76L44.8477 94.0837L57.8195 52.0739L106.307 40.6963L106.684 41.0464L359.598 260.832ZM345.09 301.507L357.483 261.335L105.601 42.5342L59.356 53.2992L46.9635 93.4711L298.845 312.272L345.09 301.507Z" fill="white"/>
<path d="M359.601 94.0837L106.31 314.11L57.9484 302.842L44.9766 260.832L298.268 40.6963L346.629 51.9645L359.601 94.0837ZM105.604 312.272L357.486 93.4711L345.093 53.2992L298.848 42.5342L46.9664 261.335L59.359 301.507L105.604 312.272Z" fill="white"/>
<path d="M331.44 177.405L266.832 274.618H137.617L73.0098 177.405L137.617 80.1914H266.832L331.44 177.405ZM265.749 272.977L329.274 177.405L265.749 81.8324H138.7L75.1759 177.405L138.7 272.977H265.749Z" fill="white"/>
<path d="M299.25 128.741V226.064L202.226 274.725L201.747 274.507L105.201 226.064V128.741L202.226 80.0801L202.704 80.2989L299.25 128.741ZM297.361 225.123V129.682L202.226 81.9618L107.09 129.682V225.123L202.226 272.844L297.361 225.123Z" fill="white"/>
<path d="M752.308 1607.59L752.031 1608.01L727.271 1645.21H368.894L343.857 1607.55L368.894 1569.9H727.271L752.308 1607.59ZM726.188 1643.61L750.117 1607.59L726.188 1571.58H369.977L346.024 1607.59L369.977 1643.61H726.188Z" fill="white"/>
<path d="M591.432 1451.94V1763.25L548.083 1785L504.709 1763.25V1451.94L548.083 1430.19L591.432 1451.94ZM589.543 1762.31V1452.84L548.083 1432.05L506.598 1452.84V1762.31L548.083 1783.1L589.543 1762.31Z" fill="white"/>
<path d="M705.434 1691.02L692.488 1733.03L644.127 1744.3L643.749 1743.95L390.709 1524.17L403.681 1482.16L452.017 1470.89L452.42 1471.24L705.434 1691.02ZM690.951 1731.7L703.268 1691.53L451.387 1472.73L405.217 1483.47L392.825 1523.64L644.706 1742.44L690.951 1731.7Z" fill="white"/>
<path d="M705.434 1524.17L705.057 1524.49L452.017 1744.3L403.681 1733.03L390.709 1691.02L391.087 1690.7L644.127 1470.89L692.488 1482.16L705.434 1524.17ZM451.387 1742.46L703.268 1523.66L690.951 1483.47L644.681 1472.7L392.8 1691.51L405.192 1731.68L451.387 1742.46Z" fill="white"/>
<path d="M677.296 1607.6L612.588 1704.81H483.373L418.74 1607.6L483.373 1510.38H612.588L677.296 1607.6ZM611.606 1703.17L675.105 1607.6L611.606 1512.02H484.557L421.158 1607.6L484.683 1703.17H611.606Z" fill="white"/>
<path d="M645.106 1558.93V1656.32L548.081 1704.98L451.031 1656.32V1558.93L548.081 1510.27L645.106 1558.93ZM643.217 1655.21V1559.87L548.081 1512.15L452.92 1559.87V1655.32L548.081 1703.04L643.217 1655.21Z" fill="white"/>
<path d="M752.308 1321.78L752.031 1322.19L727.271 1359.39H368.894L343.857 1321.73L368.894 1284.06H727.271L752.308 1321.78ZM726.188 1357.79L750.117 1321.78L726.188 1285.74H369.977L346.024 1321.78L369.977 1357.79H726.188Z" fill="white"/>
<path d="M591.432 1166.21V1477.43L548.083 1499.18L504.709 1477.43V1166.21L548.083 1144.33L591.432 1166.21ZM589.543 1476.58V1167.06L548.083 1146.25L506.598 1167.06V1476.49L548.083 1497.28L589.543 1476.58Z" fill="white"/>
<path d="M705.434 1405.21L692.488 1447.22L644.127 1458.48L643.749 1458.13L390.709 1238.41L403.681 1196.4L452.017 1185.14L452.42 1185.46L705.434 1405.21ZM690.951 1445.88L703.268 1405.71L451.387 1186.91L405.142 1197.67L392.749 1237.84L644.63 1456.65L690.951 1445.88Z" fill="white"/>
<path d="M705.434 1238.41L705.057 1238.74L452.017 1458.48L403.681 1447.21L390.709 1405.2L391.087 1404.88L644.127 1185.07L692.488 1196.34L705.434 1238.41ZM451.387 1456.64L703.268 1237.84L690.876 1197.67L644.605 1186.91L392.724 1405.71L405.117 1445.88L451.387 1456.64Z" fill="white"/>
<path d="M677.297 1321.78L612.589 1418.99H483.374L418.842 1321.78L483.475 1224.56H612.589L677.297 1321.78ZM611.606 1417.35L675.106 1321.78L611.606 1226.2H484.558L421.159 1321.78L484.684 1417.35H611.606Z" fill="white"/>
<path d="M645.106 1273.11V1370.44L548.081 1419.1L451.031 1370.44V1273.11L548.081 1224.43L645.106 1273.11ZM643.217 1369.39V1274.06L548.081 1226.34L452.92 1274.06V1369.5L548.081 1417.22L643.217 1369.39Z" fill="white"/>
<path d="M752.308 1035.96L752.031 1036.37L727.271 1073.57H368.894L343.857 1035.91L368.894 998.236H727.271L752.308 1035.96ZM726.188 1071.97L750.117 1035.96L726.188 999.921H369.977L346.024 1035.96L369.977 1071.97H726.188Z" fill="white"/>
<path d="M591.432 880.301V1191.61L548.083 1213.36L504.709 1191.61V880.301L548.083 858.552L548.536 858.792L591.432 880.301ZM589.543 1190.67V881.241L548.083 860.433L506.598 881.241V1190.67L548.083 1211.46L589.543 1190.67Z" fill="white"/>
<path d="M705.434 1119.39L692.488 1161.39L644.127 1172.64L643.749 1172.31L390.709 952.528L403.681 910.496L452.017 899.271L452.42 899.6L705.434 1119.39ZM690.951 1160.06L703.268 1119.89L451.387 901.088L405.142 911.853L392.749 952.024L644.63 1170.83L690.951 1160.06Z" fill="white"/>
<path d="M705.434 952.528L705.057 952.856L452.017 1172.64L403.681 1161.39L390.709 1119.39L391.087 1119.06L644.127 899.271L692.488 910.518L692.639 910.977L705.434 952.528ZM451.387 1170.83L703.268 952.024L690.876 911.853L644.605 901.088L392.724 1119.89L405.117 1160.06L451.387 1170.83Z" fill="white"/>
<path d="M677.296 1035.96L612.588 1133.17H483.373L418.74 1035.96L483.474 938.656H612.588L677.296 1035.96ZM611.606 1131.53L675.105 1035.96L611.606 940.385H484.557L421.158 1035.96L484.683 1131.53H611.606Z" fill="white"/>
<path d="M645.106 987.296V1084.62L548.081 1133.39L451.031 1084.73V987.296L548.081 938.656L645.106 987.296ZM643.217 1083.57V988.237L548.081 940.516L452.92 988.237V1083.68L548.081 1131.38L643.217 1083.57Z" fill="white"/>
<path d="M752.308 750.137L752.031 750.531L727.271 787.727H368.894L343.857 750.071L368.894 712.394H727.271L752.308 750.137ZM726.188 786.151L750.117 750.137L726.188 714.1H369.977L346.024 750.137L369.977 786.151H726.188Z" fill="white"/>
<path d="M591.432 594.482V905.836L548.083 927.585L504.709 905.836V594.482L548.083 572.733L548.536 572.974L591.432 594.482ZM589.543 904.851V595.423L548.083 574.615L506.598 595.423V904.851L548.083 925.637L589.543 904.851Z" fill="white"/>
<path d="M705.434 833.632L692.488 875.642L691.959 875.773L644.101 886.888L643.724 886.56L390.709 666.709L403.681 624.677L452.017 613.431L452.42 613.759L705.434 833.632ZM690.951 874.307L703.268 834.048L451.387 615.247L405.142 626.012L392.749 666.184L644.63 884.984L690.951 874.307Z" fill="white"/>
<path d="M705.434 666.709L705.057 667.037L452.017 886.822L403.681 875.576L390.709 833.632L644.127 613.431L692.488 624.677L692.639 625.137L705.434 666.709ZM451.387 885.006L703.268 666.205L690.876 626.034L644.605 615.269L392.724 834.07L405.117 874.263L451.387 885.006Z" fill="white"/>
<path d="M677.296 750.138L612.588 847.351H483.373L418.74 750.138L483.373 652.925H612.588L677.296 750.138ZM611.606 845.71L675.105 750.138L611.606 654.566H484.557L421.158 750.138L484.683 845.71H611.606Z" fill="white"/>
<path d="M645.106 701.453V798.798L548.081 847.459L547.602 847.218L451.031 798.798V701.453L548.081 652.792L548.534 653.033L645.106 701.453ZM643.217 797.857V702.35L548.081 654.63L452.92 702.35V797.791L548.081 845.512L643.217 797.857Z" fill="white"/>
<path d="M752.308 464.317L752.031 464.711L727.271 501.907H368.894L343.857 464.251L368.894 426.661H727.271L752.308 464.317ZM726.188 500.331L750.117 464.317L726.188 428.28H369.977L346.024 464.317L369.977 500.331H726.188Z" fill="white"/>
<path d="M591.43 308.64V619.972L548.082 641.721L547.603 641.48L504.783 619.972V308.64L548.157 286.913L548.611 287.132L591.43 308.64ZM589.541 619.031V309.603L548.082 288.817L506.597 309.625V619.031L548.082 639.817L589.541 619.031Z" fill="white"/>
<path d="M705.434 547.747L692.488 589.757H691.959L644.101 600.894L643.724 600.565L390.709 380.867L403.681 338.858L452.017 327.611L452.42 327.94L705.434 547.747ZM690.951 588.422L703.268 548.228L451.387 329.427L405.142 340.192L392.749 380.364L644.63 599.165L690.951 588.422Z" fill="white"/>
<path d="M705.434 380.867L705.057 381.218L452.017 601.003L403.681 589.757L390.709 547.747L644.127 327.611L692.488 338.858L692.639 339.317L705.434 380.867ZM451.387 599.187L703.268 380.386L690.876 340.214L644.605 329.449L392.724 548.25L405.117 588.444L451.387 599.187Z" fill="white"/>
<path d="M677.296 464.319L612.588 561.532H483.373L418.74 464.319L483.373 367.105H612.588L677.296 464.319ZM611.606 559.891L675.105 464.319L611.606 368.746H484.557L421.158 464.319L484.683 559.891H611.606Z" fill="white"/>
<path d="M645.106 415.722V513.066L548.081 561.728L547.602 561.487L451.031 513.066V415.722L548.081 367.061L548.534 367.301L645.106 415.722ZM643.217 511.994V416.597L548.081 368.877L452.92 416.597V511.994L548.081 559.715L643.217 511.994Z" fill="white"/>
<path d="M752.308 177.403L752.031 177.818L727.271 215.014H368.894L343.857 177.359L368.894 139.703H727.271L752.308 177.403ZM726.188 213.417L750.117 177.403L726.188 141.388H369.977L346.024 177.403L369.977 213.417H726.188Z" fill="white"/>
<path d="M591.43 21.7488V333.059L548.082 354.808L547.603 354.567L504.783 333.059V21.7488L548.082 0L548.535 0.240681L591.43 21.7488ZM589.541 332.118V22.6897L548.082 1.90357L506.597 22.6897V332.118L548.082 352.904L589.541 332.118Z" fill="white"/>
<path d="M705.434 260.834L692.488 302.844L691.959 302.975L644.101 314.112L643.724 313.762L390.709 94.0856L403.681 52.0759L452.017 40.8076L452.42 41.1577L705.434 260.834ZM690.951 301.509L703.268 261.337L451.387 42.5361L405.142 53.3011L392.749 93.473L644.63 312.274L690.951 301.509Z" fill="white"/>
<path d="M705.434 94.0837L705.057 94.4119L452.017 314.11L403.681 302.842L390.709 260.832L644.127 40.6963L692.488 51.9645L692.639 52.424L705.434 94.0837ZM451.387 312.272L703.268 93.4711L690.876 53.2992L644.605 42.5342L392.724 261.335L405.117 301.507L451.387 312.272Z" fill="white"/>
<path d="M677.297 177.405L612.589 274.618H483.374L418.842 177.405L483.475 80.1914H612.589L677.297 177.405ZM611.606 272.977L675.106 177.405L611.606 81.8324H484.558L421.159 177.405L484.684 272.977H611.606Z" fill="white"/>
<path d="M645.106 128.741V226.064L548.081 274.725L547.602 274.507L451.031 226.064V128.741L548.081 80.0801L548.534 80.2989L645.106 128.741ZM643.217 225.123V129.682L548.081 81.9618L452.92 129.682V225.123L548.081 272.844L643.217 225.123Z" fill="white"/>
<path d="M1098.14 1607.6L1097.89 1608.01L1073.13 1645.21H714.727L689.715 1607.55L689.967 1607.14L714.727 1569.94H1073.13L1098.14 1607.6ZM1072.02 1643.61L1095.97 1607.6L1072.02 1571.58H715.86L691.906 1607.6L715.86 1643.61H1072.02Z" fill="white"/>
<path d="M937.293 1451.94V1763.25L893.944 1785L850.57 1763.25V1451.94L893.944 1430.19L937.293 1451.94ZM935.404 1762.31V1452.84L893.944 1432.05L852.459 1452.84V1762.31L893.944 1783.1L935.404 1762.31Z" fill="white"/>
<path d="M1051.29 1691.02L1038.27 1733.03L989.908 1744.3L736.566 1524.17L749.513 1482.16L797.874 1470.89L1051.29 1691.02ZM1036.78 1731.7L1049.18 1691.53L797.295 1472.73L751.125 1483.47L738.707 1523.64L990.589 1742.44L1036.78 1731.7Z" fill="white"/>
<path d="M1051.29 1524.17L1050.91 1524.49L797.874 1744.3L749.513 1733.03L736.566 1691.02L736.944 1690.7L989.984 1470.89L1038.27 1482.16L1051.29 1524.17ZM797.32 1742.46L1049.2 1523.66L1036.78 1483.47L990.538 1472.7L738.657 1691.51L751.125 1731.7L797.32 1742.46Z" fill="white"/>
<path d="M1023.16 1607.6L1022.88 1608.01L958.548 1704.81H829.207L764.6 1607.6L764.877 1607.18L829.207 1510.38H958.447L1023.16 1607.6ZM957.44 1703.17L1020.96 1607.6L957.44 1512.02H830.416L766.892 1607.6L830.416 1703.17H957.44Z" fill="white"/>
<path d="M990.965 1558.93V1656.32L893.94 1704.92L796.891 1656.32V1558.93L893.94 1510.27L990.965 1558.93ZM989.076 1655.21V1559.87L893.94 1512.15L798.78 1559.87V1655.32L893.94 1703.04L989.076 1655.21Z" fill="white"/>
<path d="M1098.14 1321.78L1097.89 1322.19L1073.13 1359.39H714.727L689.715 1321.73L689.967 1321.32L714.727 1284.12H1073.13L1098.14 1321.78ZM1072.02 1357.79L1095.97 1321.78L1072.02 1285.74H715.86L691.906 1321.78L715.86 1357.79H1072.02Z" fill="white"/>
<path d="M937.293 1166.21V1477.43L893.944 1499.18L850.57 1477.43V1166.21L893.944 1144.33L937.293 1166.21ZM935.404 1476.58V1167.06L893.944 1146.25L852.459 1167.06V1476.49L893.944 1497.28L935.404 1476.58Z" fill="white"/>
<path d="M1051.29 1405.21L1038.27 1447.22L989.908 1458.48L736.566 1238.41L749.513 1196.4L797.874 1185.14L1051.29 1405.21ZM1036.78 1445.88L1049.18 1405.71L797.295 1186.91L751.125 1197.67L738.707 1237.84L990.589 1456.65L1036.78 1445.88Z" fill="white"/>
<path d="M1051.29 1238.41L1050.91 1238.74L797.874 1458.48L749.513 1447.21L736.566 1405.2L736.944 1404.88L989.984 1185.07L1038.35 1196.34L1051.29 1238.41ZM797.32 1456.64L1049.2 1237.84L1036.81 1197.67L990.563 1186.91L738.682 1405.71L751.125 1445.88L797.32 1456.64Z" fill="white"/>
<path d="M1023.16 1321.78L1022.88 1322.19L958.551 1418.99H829.21L764.703 1321.78L764.98 1321.36L829.21 1224.56H958.45L1023.16 1321.78ZM957.443 1417.35L1020.97 1321.78L957.443 1226.2H830.419L766.894 1321.78L830.419 1417.35H957.443Z" fill="white"/>
<path d="M990.965 1273.11V1370.44L893.94 1419.1L796.891 1370.44V1273.11L893.94 1224.43L990.965 1273.11ZM989.076 1369.39V1274.06L893.94 1226.34L798.78 1274.06V1369.5L893.94 1417.22L989.076 1369.39Z" fill="white"/>
<path d="M1098.14 1035.96L1097.89 1036.37L1073.13 1073.57H714.727L689.715 1035.91L689.967 1035.5L714.727 998.301H1073.13L1098.14 1035.96ZM1072.02 1071.97L1095.97 1035.96L1072.02 999.92H715.86L691.906 1035.96L715.86 1071.97H1072.02Z" fill="white"/>
<path d="M937.293 880.301V1191.61L893.944 1213.36L850.57 1191.61V880.301L893.944 858.552L894.398 858.792L937.293 880.301ZM935.404 1190.67V881.241L893.944 860.433L852.459 881.241V1190.67L893.944 1211.46L935.404 1190.67Z" fill="white"/>
<path d="M1051.29 1119.38L1038.27 1161.39L989.908 1172.64L736.566 952.527L749.513 910.495L750.042 910.386L797.899 899.249L798.303 899.577L1051.29 1119.38ZM1036.78 1160.06L1049.18 1119.89L797.295 901.087L751.125 911.852L738.707 952.024L990.589 1170.82L1036.78 1160.06Z" fill="white"/>
<path d="M1051.29 952.528L1050.91 952.856L797.874 1172.64L749.513 1161.39L736.566 1119.39L736.944 1119.06L989.984 899.271L1038.35 910.518L1038.47 910.977L1051.29 952.528ZM797.32 1170.83L1049.2 952.024L1036.81 911.853L990.563 901.088L738.682 1119.89L751.125 1160.06L797.32 1170.83Z" fill="white"/>
<path d="M1023.16 1035.96L1022.88 1036.37L958.548 1133.17H829.207L764.6 1035.96L764.877 1035.54L829.207 938.656H958.447L1023.16 1035.96ZM957.44 1131.53L1020.96 1035.96L957.44 940.385H830.416L766.892 1035.96L830.416 1131.53H957.44Z" fill="white"/>
<path d="M990.965 987.296V1084.62L893.94 1133.39L796.891 1084.73V987.296L893.94 938.656L990.965 987.296ZM989.076 1083.57V988.237L893.94 940.516L798.78 988.237V1083.68L893.94 1131.38L989.076 1083.57Z" fill="white"/>
<path d="M1098.14 750.137L1097.89 750.531L1073.13 787.727H714.727L689.715 750.072L689.967 749.656L714.727 712.46H1073.13L1098.14 750.137ZM1072.02 786.152L1095.97 750.137L1072.02 714.101H715.86L691.906 750.137L715.86 786.152H1072.02Z" fill="white"/>
<path d="M937.293 594.482V905.836L893.944 927.585L850.57 905.836V594.482L893.944 572.733L894.398 572.974L937.293 594.482ZM935.404 904.851V595.423L893.944 574.615L852.459 595.423V904.851L893.944 925.637L935.404 904.851Z" fill="white"/>
<path d="M1051.29 833.632L1038.27 875.576L1037.74 875.707L989.883 886.822L989.48 886.494L736.566 666.709L749.513 624.677L750.042 624.568L797.899 613.431L798.303 613.759L1051.29 833.632ZM1036.78 874.307L1049.18 834.113L797.295 615.312L751.125 626.034L738.707 666.205L990.589 885.006L1036.78 874.307Z" fill="white"/>
<path d="M1051.29 666.709L1050.91 667.037L797.874 886.822L749.513 875.576L749.387 875.116L736.566 833.544L736.944 833.216L989.984 613.431L1038.27 624.677L1038.4 625.137L1051.29 666.709ZM797.32 885.006L1049.2 666.205L1036.81 626.034L990.563 615.269L738.682 834.07L751.125 874.241L797.32 885.006Z" fill="white"/>
<path d="M1023.16 750.138L1022.88 750.532L958.548 847.351H829.207L764.6 750.138L764.877 749.722L829.207 652.925H958.447L1023.16 750.138ZM957.44 845.71L1020.96 750.138L957.44 654.566H830.416L766.892 750.138L830.416 845.71H957.44Z" fill="white"/>
<path d="M990.965 701.453V798.798L893.94 847.459L893.462 847.218L796.891 798.798V701.453L893.94 652.792L894.394 653.033L990.965 701.453ZM989.076 797.857V702.35L893.94 654.696L798.78 702.35V797.791L893.94 845.512L989.076 797.857Z" fill="white"/>
<path d="M1098.14 464.318L1097.89 464.712L1073.13 501.908H714.727L689.715 464.252L689.967 463.837L714.727 426.641H1073.13L1098.14 464.318ZM1072.02 500.333L1095.97 464.318L1072.02 428.282H715.86L691.906 464.318L715.86 500.333H1072.02Z" fill="white"/>
<path d="M937.288 308.64V619.972L893.939 641.721L893.46 641.48L850.641 619.972V308.64L894.015 286.913L894.468 287.132L937.288 308.64ZM935.399 619.031V309.603L893.939 288.817L852.454 309.625V619.031L893.939 639.817L935.399 619.031Z" fill="white"/>
<path d="M1051.29 547.747L1038.27 589.757H1037.74L989.883 600.894L989.48 600.565L736.566 380.867L749.513 338.858L750.042 338.748L797.899 327.611L798.303 327.94L1051.29 547.747ZM1036.78 588.422L1049.18 548.228L797.295 329.427L751.125 340.214L738.707 380.386L990.589 599.187L1036.78 588.422Z" fill="white"/>
<path d="M1051.29 380.867L1050.91 381.218L797.874 601.003L749.513 589.757L749.387 589.297L736.566 547.725L736.944 547.397L989.984 327.611L1038.35 338.858L1038.47 339.317L1051.29 380.867ZM797.32 599.187L1049.2 380.386L1036.81 340.214L990.563 329.449L738.682 548.25L751.125 588.422L797.32 599.187Z" fill="white"/>
<path d="M1023.16 464.319L1022.88 464.713L958.548 561.532H829.207L764.6 464.319L764.877 463.903L829.207 367.105H958.447L1023.16 464.319ZM957.44 559.891L1020.96 464.319L957.44 368.746H830.416L766.892 464.319L830.416 559.891H957.44Z" fill="white"/>
<path d="M990.965 415.722V513.066L893.94 561.64L893.462 561.399L796.891 512.979V415.722L893.94 367.061L894.394 367.301L990.965 415.722ZM989.076 511.994V416.597L893.94 368.877L798.78 416.597V511.994L893.94 559.715L989.076 511.994Z" fill="white"/>
<path d="M1098.14 177.404L1097.89 177.819L1073.13 215.016H714.727L689.715 177.36L689.967 176.944L714.727 139.748H1073.13L1098.14 177.404ZM1072.02 213.418L1095.97 177.404L1072.02 141.389H715.86L691.906 177.404L715.86 213.418H1072.02Z" fill="white"/>
<path d="M937.288 21.7488V333.059L893.939 354.808L893.46 354.567L850.641 333.059V21.7488L893.939 0L894.392 0.240681L937.288 21.7488ZM935.399 332.118V22.6897L893.939 1.90357L852.454 22.6897V332.118L893.939 352.904L935.399 332.118Z" fill="white"/>
<path d="M1051.29 260.834L1038.27 302.844L1037.74 302.975L989.883 314.112L989.48 313.762L736.566 94.0856L749.513 52.0759L750.042 51.9446L797.899 40.8076L798.303 41.1577L1051.29 260.834ZM1036.78 301.509L1049.18 261.337L797.295 42.5361L751.125 53.3011L738.707 93.473L990.589 312.274L1036.78 301.509Z" fill="white"/>
<path d="M1051.29 94.0837L1050.91 94.4119L797.874 314.11L749.513 302.842L749.387 302.382L736.566 260.81L736.944 260.482L989.984 40.6963L1038.27 51.9645L1038.4 52.424L1051.29 94.0837ZM797.32 312.272L1049.2 93.4711L1036.81 53.2992L990.563 42.5342L738.682 261.335L751.125 301.507L797.32 312.272Z" fill="white"/>
<path d="M1023.16 177.405L1022.88 177.82L958.551 274.618H829.21L764.703 177.405L764.98 176.989L829.21 80.1914H958.45L1023.16 177.405ZM957.443 272.977L1020.97 177.405L957.443 81.8324H830.419L766.894 177.405L830.419 272.977H957.443Z" fill="white"/>
<path d="M990.965 128.741V226.064L893.94 274.725L893.462 274.507L796.891 226.064V128.741L893.94 80.0801L894.394 80.2989L990.965 128.741ZM989.076 225.123V129.682L893.94 81.9618L798.78 129.682V225.123L893.94 272.844L989.076 225.123Z" fill="white"/>
<path d="M1444 1607.6L1443.72 1608.01L1418.96 1645.21H1060.59L1035.55 1607.55L1035.83 1607.14L1060.59 1569.94H1418.96L1444 1607.6ZM1417.88 1643.61L1441.84 1607.6L1417.88 1571.58H1061.67L1037.74 1607.6L1061.67 1643.61H1417.88Z" fill="white"/>
<path d="M1283.14 1451.94V1763.25L1239.77 1785L1196.42 1763.25V1451.94L1239.77 1430.19L1283.14 1451.94ZM1281.26 1762.31V1452.84L1239.77 1432.1L1198.31 1452.84V1762.31L1239.77 1783.1L1281.26 1762.31Z" fill="white"/>
<path d="M1397.15 1691.02L1384.18 1733.03L1335.81 1744.3L1082.42 1524.17L1095.37 1482.16L1143.73 1470.89L1397.15 1691.02ZM1382.64 1731.7L1395.03 1691.53L1143.15 1472.73L1096.91 1483.47L1084.51 1523.64L1336.39 1742.44L1382.64 1731.7Z" fill="white"/>
<path d="M1397.15 1524.17L1396.77 1524.49L1143.73 1744.3L1095.37 1733.03L1082.42 1691.02L1082.8 1690.7L1335.81 1470.89L1384.18 1482.16L1397.15 1524.17ZM1143.18 1742.46L1395.06 1523.66L1382.64 1483.47L1336.39 1472.7L1084.51 1691.51L1096.91 1731.68L1143.18 1742.46Z" fill="white"/>
<path d="M1368.99 1607.6L1368.74 1608.01L1304.38 1704.81H1175.17L1110.56 1607.6L1110.84 1607.18L1175.17 1510.38H1304.38L1368.99 1607.6ZM1303.3 1703.17L1366.82 1607.6L1303.3 1512.02H1176.27L1112.75 1607.6L1176.27 1703.17H1303.3Z" fill="white"/>
<path d="M1336.83 1558.93V1656.32L1239.78 1704.92L1142.75 1656.32V1558.93L1239.78 1510.27L1336.83 1558.93ZM1334.94 1655.21V1559.87L1239.78 1512.15L1144.64 1559.87V1655.32L1239.78 1703.04L1334.94 1655.21Z" fill="white"/>
<path d="M1444 1321.78L1443.72 1322.19L1418.96 1359.39H1060.59L1035.55 1321.73L1035.83 1321.32L1060.59 1284.12H1418.96L1444 1321.78ZM1417.88 1357.79L1441.84 1321.78L1417.88 1285.74H1061.67L1037.74 1321.78L1061.67 1357.79H1417.88Z" fill="white"/>
<path d="M1283.14 1166.21V1477.43L1239.77 1499.18L1196.42 1477.43V1166.21L1239.77 1144.33L1283.14 1166.21ZM1281.26 1476.58V1167.06L1239.77 1146.25L1198.31 1167.06V1476.49L1239.77 1497.28L1281.26 1476.58Z" fill="white"/>
<path d="M1397.15 1405.21L1384.18 1447.22L1335.81 1458.48L1082.42 1238.41L1095.37 1196.4L1143.73 1185.14L1397.15 1405.21ZM1382.64 1445.88L1395.03 1405.71L1143.15 1186.91L1096.88 1197.67L1084.49 1237.84L1336.37 1456.65L1382.64 1445.88Z" fill="white"/>
<path d="M1397.15 1238.41L1396.77 1238.74L1143.73 1458.48L1095.37 1447.21L1082.42 1405.2L1082.8 1404.88L1335.81 1185.07L1384.18 1196.34L1397.15 1238.41ZM1143.18 1456.64L1395.06 1237.84L1382.66 1197.67L1336.42 1186.91L1084.54 1405.71L1096.93 1445.88L1143.18 1456.64Z" fill="white"/>
<path d="M1368.99 1321.78L1368.74 1322.19L1304.38 1418.99H1175.17L1110.56 1321.78L1110.84 1321.36L1175.17 1224.56H1304.38L1368.99 1321.78ZM1303.3 1417.35L1366.82 1321.78L1303.3 1226.2H1176.27L1112.75 1321.78L1176.27 1417.35H1303.3Z" fill="white"/>
<path d="M1336.83 1273.11V1370.44L1239.78 1419.1L1142.75 1370.44V1273.11L1239.78 1224.43L1336.83 1273.11ZM1334.94 1369.39V1274.06L1239.78 1226.34L1144.64 1274.06V1369.5L1239.78 1417.22L1334.94 1369.39Z" fill="white"/>
<path d="M1444 1035.96L1443.72 1036.37L1418.96 1073.57H1060.59L1035.55 1035.91L1035.83 1035.5L1060.59 998.301H1418.96L1444 1035.96ZM1417.88 1071.97L1441.84 1035.96L1417.88 999.92H1061.67L1037.74 1035.96L1061.67 1071.97H1417.88Z" fill="white"/>
<path d="M1283.14 880.301V1191.61L1239.77 1213.36L1196.42 1191.61V880.301L1239.77 858.552L1240.25 858.792L1283.14 880.301ZM1281.26 1190.67V881.241L1239.77 860.433L1198.31 881.241V1190.67L1239.77 1211.46L1281.26 1190.67Z" fill="white"/>
<path d="M1397.15 1119.38L1384.18 1161.39L1335.81 1172.64L1082.42 952.527L1095.37 910.495L1095.9 910.386L1143.75 899.249L1144.13 899.577L1397.15 1119.38ZM1382.64 1160.06L1395.03 1119.89L1143.15 901.087L1096.88 911.852L1084.49 952.024L1336.37 1170.82L1382.64 1160.06Z" fill="white"/>
<path d="M1397.15 952.528L1396.77 952.856L1143.73 1172.64L1095.37 1161.39L1082.42 1119.39L1082.8 1119.06L1335.81 899.271L1384.18 910.518L1384.33 910.977L1397.15 952.528ZM1143.18 1170.83L1395.06 952.024L1382.66 911.853L1336.42 901.088L1084.54 1119.89L1096.93 1160.06L1143.18 1170.83Z" fill="white"/>
<path d="M1368.99 1035.96L1368.74 1036.37L1304.38 1133.17H1175.17L1110.56 1035.96L1110.84 1035.54L1175.17 938.656H1304.38L1368.99 1035.96ZM1303.3 1131.53L1366.82 1035.96L1303.3 940.385H1176.27L1112.75 1035.96L1176.27 1131.53H1303.3Z" fill="white"/>
<path d="M1336.83 987.296V1084.62L1239.78 1133.39L1142.75 1084.73V987.296L1239.78 938.656L1336.83 987.296ZM1334.94 1083.57V988.237L1239.78 940.516L1144.64 988.237V1083.68L1239.78 1131.38L1334.94 1083.57Z" fill="white"/>
<path d="M1444 750.136L1443.8 750.486L1419.04 787.683H1060.59L1035.55 750.027L1035.83 749.611L1060.59 712.415H1418.96L1444 750.136ZM1417.88 786.151L1441.84 750.136L1417.88 714.1H1061.67L1037.74 750.136L1061.67 786.151H1417.88Z" fill="white"/>
<path d="M1283.14 594.482V905.836L1239.77 927.541L1196.42 905.836V594.482L1239.77 572.733L1240.25 572.974L1283.14 594.482ZM1281.26 904.851V595.423L1239.77 574.615L1198.31 595.423V904.851L1239.77 925.637L1281.26 904.851Z" fill="white"/>
<path d="M1397.15 833.632L1384.18 875.642L1383.65 875.773L1335.79 886.888L1335.41 886.56L1082.42 666.709L1095.37 624.677L1095.9 624.568L1143.75 613.431L1144.13 613.759L1397.15 833.632ZM1382.64 874.307L1395.03 834.113L1143.15 615.312L1096.88 626.077L1084.49 666.249L1336.37 885.05L1382.64 874.307Z" fill="white"/>
<path d="M1397.15 666.709L1396.77 667.037L1143.73 886.822L1095.37 875.576L1095.22 875.116L1082.42 833.544L1082.8 833.216L1335.81 613.431L1384.18 624.677L1384.33 625.137L1397.15 666.709ZM1143.18 885.006L1395.06 666.205L1382.66 626.034L1336.42 615.269L1084.54 834.07L1096.93 874.263L1143.18 885.006Z" fill="white"/>
<path d="M1368.99 750.138L1368.74 750.532L1304.38 847.351H1175.17L1110.56 750.138L1110.84 749.722L1175.17 652.925H1304.38L1368.99 750.138ZM1303.3 845.71L1366.82 750.138L1303.3 654.566H1176.27L1112.75 750.138L1176.27 845.71H1303.3Z" fill="white"/>
<path d="M1336.83 701.453V798.798L1239.78 847.459L1239.32 847.218L1142.75 798.798V701.453L1239.78 652.792L1240.26 653.033L1336.83 701.453ZM1334.94 797.857V702.35L1239.78 654.696L1144.64 702.35V797.791L1239.78 845.577L1334.94 797.857Z" fill="white"/>
<path d="M1444 464.317L1443.72 464.711L1418.96 501.907H1060.59L1035.55 464.251L1035.75 463.857L1060.51 426.661H1418.96L1444 464.317ZM1417.88 500.331L1441.84 464.317L1417.88 428.28H1061.67L1037.74 464.317L1061.67 500.331H1417.88Z" fill="white"/>
<path d="M1283.15 308.64V619.972L1239.78 641.721L1239.32 641.48L1196.5 619.972V308.64L1239.78 286.913L1240.26 287.132L1283.15 308.64ZM1281.26 619.031V309.603L1239.78 288.817L1198.32 309.625V619.031L1239.78 639.817L1281.26 619.031Z" fill="white"/>
<path d="M1397.15 547.747L1384.18 589.757H1383.65L1335.79 600.894L1335.41 600.565L1082.42 380.867L1095.37 338.858L1095.9 338.748L1143.75 327.611L1144.13 327.94L1397.15 547.747ZM1382.64 588.422L1395.03 548.228L1143.15 329.427L1096.88 340.192L1084.49 380.364L1336.37 599.165L1382.64 588.422Z" fill="white"/>
<path d="M1397.15 380.867L1396.77 381.218L1143.73 601.003L1095.37 589.757L1095.22 589.297L1082.42 547.725L1082.8 547.397L1335.81 327.611L1384.18 338.858L1384.33 339.317L1397.15 380.867ZM1143.18 599.187L1395.06 380.386L1382.66 340.214L1336.42 329.449L1084.54 548.25L1096.93 588.444L1143.18 599.187Z" fill="white"/>
<path d="M1368.99 464.319L1368.74 464.713L1304.38 561.532H1175.17L1110.56 464.319L1110.84 463.903L1175.17 367.105H1304.38L1368.99 464.319ZM1303.3 559.891L1366.82 464.319L1303.3 368.746H1176.27L1112.75 464.319L1176.27 559.891H1303.3Z" fill="white"/>
<path d="M1336.83 415.721V513.065L1239.78 561.639L1239.32 561.398L1142.75 512.977V415.721L1239.78 366.972L1240.26 367.212L1336.83 415.721ZM1334.94 511.993V416.596L1239.78 368.875L1144.64 416.596V511.993L1239.78 559.735L1334.94 511.993Z" fill="white"/>
<path d="M1444 177.404L1443.72 177.819L1418.96 215.016H1060.59L1035.55 177.36L1035.83 176.944L1060.59 139.748H1418.96L1444 177.404ZM1417.88 213.418L1441.84 177.404L1417.88 141.389H1061.67L1037.74 177.404L1061.67 213.418H1417.88Z" fill="white"/>
<path d="M1283.15 21.7488V333.059L1239.78 354.808L1239.32 354.567L1196.5 333.059V21.7488L1239.78 0L1240.26 0.240681L1283.15 21.7488ZM1281.26 332.118V22.6897L1239.78 1.90357L1198.32 22.6897V332.118L1239.78 352.904L1281.26 332.118Z" fill="white"/>
<path d="M1397.15 260.834L1384.18 302.844L1383.65 302.975L1335.79 314.112L1335.41 313.762L1082.42 94.0856L1095.37 52.0759L1095.9 51.9446L1143.75 40.8076L1144.13 41.1577L1397.15 260.834ZM1382.64 301.509L1395.03 261.337L1143.15 42.5361L1096.88 53.3011L1084.49 93.473L1336.37 312.274L1382.64 301.509Z" fill="white"/>
<path d="M1397.15 94.0837L1396.77 94.4119L1143.73 314.11L1095.37 302.842L1095.22 302.382L1082.42 260.81L1082.8 260.482L1335.81 40.6963L1384.18 51.9645L1384.33 52.424L1397.15 94.0837ZM1143.18 312.272L1395.06 93.4711L1382.66 53.2992L1336.42 42.5342L1084.54 261.335L1096.93 301.507L1143.18 312.272Z" fill="white"/>
<path d="M1368.99 177.405L1368.74 177.82L1304.38 274.618H1175.17L1110.56 177.405L1110.84 176.989L1175.17 80.1914H1304.38L1368.99 177.405ZM1303.3 272.977L1366.82 177.405L1303.3 81.8324H1176.27L1112.75 177.405L1176.27 272.977H1303.3Z" fill="white"/>
<path d="M1336.83 128.741V226.064L1239.78 274.725L1239.32 274.507L1142.75 226.064V128.741L1239.78 80.0801L1240.26 80.2989L1336.83 128.741ZM1334.94 225.123V129.682L1239.78 81.9618L1144.64 129.682V225.123L1239.78 272.844L1334.94 225.123Z" fill="white"/>
</g>
</svg>
