<svg width="208" height="195" viewBox="0 0 208 195" fill="none" xmlns="http://www.w3.org/2000/svg">
<g clip-path="url(#clip0_1747_20631)">
<path d="M110.018 195C163.684 195 207.188 191.253 207.188 186.631C207.188 182.009 163.684 178.262 110.018 178.262C56.353 178.262 12.8486 182.009 12.8486 186.631C12.8486 191.253 56.353 195 110.018 195Z" fill="#165151"/>
<path d="M207.188 46.028V149.436C207.188 151.242 206.471 152.975 205.195 154.253C203.919 155.53 202.189 156.248 200.384 156.248H6.80396C4.99959 156.248 3.26912 155.53 1.99316 154.253C0.717196 152.975 0.000244726 151.243 0 149.436L0 46.028C6.05912e-05 45.1334 0.176098 44.2475 0.518062 43.421C0.860025 42.5944 1.36122 41.8434 1.99302 41.2109C2.62483 40.5783 3.37487 40.0765 4.20034 39.7342C5.0258 39.3919 5.91051 39.2158 6.80396 39.2158H200.384C201.278 39.2158 202.163 39.3919 202.988 39.7342C203.813 40.0766 204.563 40.5783 205.195 41.2109C205.827 41.8435 206.328 42.5945 206.67 43.421C207.012 44.2475 207.188 45.1334 207.188 46.028Z" fill="#365F5F"/>
<path d="M207.188 46.028V143.392H0V46.028C6.05912e-05 45.1334 0.176098 44.2475 0.518062 43.421C0.860025 42.5944 1.36122 41.8434 1.99302 41.2109C2.62483 40.5783 3.37487 40.0765 4.20034 39.7342C5.0258 39.3919 5.91051 39.2158 6.80396 39.2158H200.384C201.278 39.2158 202.163 39.3919 202.988 39.7342C203.813 40.0766 204.563 40.5783 205.195 41.2109C205.827 41.8435 206.328 42.5945 206.67 43.421C207.012 44.2475 207.188 45.1334 207.188 46.028Z" fill="#365F5F"/>
<path d="M200.231 48.5687V134.37C200.231 134.864 200.035 135.338 199.686 135.687C199.337 136.037 198.864 136.233 198.371 136.233H8.99998C8.57963 136.233 8.17649 136.066 7.87926 135.768C7.58202 135.47 7.41504 135.067 7.41504 134.646V49.0506C7.41504 48.4579 7.65018 47.8895 8.06873 47.4704C8.48728 47.0513 9.05496 46.8158 9.64688 46.8158H198.48C198.71 46.8158 198.938 46.8611 199.15 46.9492C199.363 47.0373 199.556 47.1664 199.718 47.3292C199.881 47.492 200.01 47.6852 200.098 47.8979C200.186 48.1106 200.231 48.3385 200.231 48.5687Z" fill="#407575"/>
<path d="M116.093 145.831H91.0951C90.0518 145.831 89.2061 146.677 89.2061 147.722V150.367C89.2061 151.411 90.0518 152.258 91.0951 152.258H116.093C117.136 152.258 117.982 151.411 117.982 150.367V147.722C117.982 146.677 117.136 145.831 116.093 145.831Z" fill="#165151"/>
<path d="M119.311 155.14H88.0996V179.078H119.311V155.14Z" fill="#365F5F"/>
<path d="M137.24 180.63C136.132 178.192 128.828 175.975 125.286 174.423C121.745 172.871 100.052 170.656 84.3358 174.423C68.6197 178.191 70.8335 181.627 70.8335 181.627C70.8335 182.303 71.1017 182.952 71.5791 183.43C72.0565 183.908 72.704 184.176 73.3791 184.176H134.694C135.369 184.176 136.017 183.908 136.494 183.43C136.971 182.952 137.24 182.303 137.24 181.627C137.24 181.368 137.2 181.11 137.123 180.863C137.236 180.789 137.277 180.712 137.24 180.63Z" fill="#365F5F"/>
<path d="M200.231 48.5688V52.4961H7.41504V49.0498C7.41504 48.4571 7.65018 47.8886 8.06873 47.4695C8.48728 47.0504 9.05496 46.8149 9.64688 46.8149H198.48C198.71 46.8149 198.938 46.8603 199.151 46.9485C199.363 47.0366 199.556 47.1658 199.719 47.3287C199.881 47.4916 200.01 47.6849 200.098 47.8977C200.186 48.1105 200.231 48.3385 200.231 48.5688Z" fill="#165151"/>
<path d="M184.115 50.901C184.802 50.901 185.358 50.3438 185.358 49.6563C185.358 48.9689 184.802 48.4116 184.115 48.4116C183.429 48.4116 182.872 48.9689 182.872 49.6563C182.872 50.3438 183.429 50.901 184.115 50.901Z" fill="#5DBECE"/>
<path d="M189.294 50.901C189.98 50.901 190.537 50.3438 190.537 49.6563C190.537 48.9689 189.98 48.4116 189.294 48.4116C188.607 48.4116 188.051 48.9689 188.051 49.6563C188.051 50.3438 188.607 50.901 189.294 50.901Z" fill="#E0AE4B"/>
<path d="M194.131 50.901C194.817 50.901 195.374 50.3438 195.374 49.6563C195.374 48.9689 194.817 48.4116 194.131 48.4116C193.444 48.4116 192.888 48.9689 192.888 49.6563C192.888 50.3438 193.444 50.901 194.131 50.901Z" fill="#C94020"/>
<path d="M119.311 155.14V158.665C110.59 161.986 99.2731 165.922 88.0996 168.726V155.142L119.311 155.14Z" fill="#365F5F"/>
<path d="M182.437 133.821H37.6006L38.0565 58.2224C38.0565 57.4069 38.38 56.6248 38.9558 56.0482C39.5317 55.4715 40.3127 55.1476 41.1271 55.1476H179.94C180.723 55.1476 181.474 55.4591 182.028 56.0137C182.582 56.5682 182.893 57.3203 182.893 58.1046L182.437 133.821Z" fill="#365F5F"/>
<path d="M181.168 108.911H151.747V132.312H181.168V108.911Z" fill="#165151"/>
<path d="M181.168 57.2328H151.747V80.6338H181.168V57.2328Z" fill="#165151"/>
<path d="M181.168 83.6342H151.747V107.035H181.168V83.6342Z" fill="#165151"/>
<path d="M172.498 68.9185L163.438 73.7389V64.0981L172.498 68.9185Z" fill="white"/>
<path d="M166.458 76.1857C160.927 76.2832 156.947 70.7435 159.191 66.0894C161.86 60.2091 171.056 60.2091 173.725 66.0894C175.967 70.7435 171.989 76.2837 166.458 76.1857ZM166.458 62.3386C161.451 62.2499 157.847 67.2657 159.878 71.4795C162.295 76.8039 170.621 76.8044 173.037 71.4795C175.068 67.2662 171.465 62.2495 166.458 62.3386Z" fill="white"/>
<path d="M172.498 95.3199L163.438 100.14V90.4995L172.498 95.3199Z" fill="white"/>
<path d="M166.457 102.587C160.927 102.685 156.947 97.1449 159.191 92.4909C161.86 86.6106 171.056 86.6106 173.726 92.4909C175.967 97.1449 171.988 102.686 166.457 102.587ZM166.457 88.7401C161.45 88.6514 157.847 93.6672 159.878 97.881C162.295 103.206 170.621 103.206 173.037 97.881C175.067 93.6677 171.466 88.651 166.457 88.7401Z" fill="white"/>
<path d="M173.246 119.433L164.186 124.253V114.612L173.246 119.433Z" fill="white"/>
<path d="M167.206 126.7C161.676 126.798 157.695 121.258 159.939 116.604C162.608 110.724 171.804 110.724 174.474 116.604C176.715 121.257 172.736 126.798 167.206 126.7ZM167.206 112.853C162.198 112.764 158.595 117.78 160.626 121.994C163.043 127.318 171.369 127.318 173.785 121.994C175.815 117.78 172.214 112.764 167.206 112.853Z" fill="white"/>
<path d="M166.116 78.0021H153.982V79.0957H166.116V78.0021Z" fill="#CEE7EA"/>
<path d="M173.614 130.31H161.48V131.404H173.614V130.31Z" fill="#CEE7EA"/>
<path d="M165.368 104.654H153.234V105.748H165.368V104.654Z" fill="#CEE7EA"/>
<path d="M179.206 104.654H167.072V105.748H179.206V104.654Z" fill="#CEE7EA"/>
<path d="M173.138 78.0021H167.179V79.0957H173.138V78.0021Z" fill="#CEE7EA"/>
<path d="M159.942 130.31H153.982V131.404H159.942V130.31Z" fill="#CEE7EA"/>
<path d="M147.278 58.3254H39.6338V124.921H147.278V58.3254Z" fill="#E8F4F6"/>
<path d="M137.253 57.8737H41.8076V113.781H137.253V57.8737Z" fill="#E8CEA9"/>
<path d="M133.446 60.1039H45.6152V111.551H133.446V60.1039Z" fill="#329D88"/>
<path d="M47.5153 62.3341H133.446V60.1039H45.6152V111.551H47.5153V62.3341Z" fill="#2E8C74"/>
<path d="M73.9558 66.1902L71.0859 69.2733C71.0859 69.2733 67.2358 68.8727 65.3025 68.936C63.653 68.9915 62.6222 68.4412 62.2761 67.7236C62.2171 67.6027 62.1771 67.4734 62.1576 67.3402C62.0302 66.4457 62.7316 66.1259 62.7316 66.1259C62.7316 66.1259 61.4567 65.6792 61.7114 64.7214C61.9661 63.7636 62.4127 63.8273 62.4127 63.8273C62.4127 63.8273 61.6472 62.9957 61.9661 62.359C62.2849 61.7223 63.0504 61.7838 63.0504 61.7838C63.0504 61.7838 62.3491 61.0815 62.8598 60.698C63.1911 60.4485 64.6593 60.6601 65.644 60.8366C66.1709 60.929 66.5585 61.0163 66.5585 61.0163C66.5585 61.0163 65.028 59.1645 65.3468 56.8026C65.6657 54.4407 66.6849 54.8251 67.0047 55.015C67.3244 55.2049 67.0047 57.4402 67.6428 58.2067C68.2809 58.9732 70.6392 60.5696 72.298 63.3815L73.9558 66.1902Z" fill="#F7B7A0"/>
<path d="M55.0112 26.5026C53.3571 27.2576 66.4944 71.7129 66.4944 71.7129C66.4944 71.7129 67.7697 71.8312 68.3225 71.6205C68.8752 71.4098 69.0879 70.5116 69.0879 70.5116C69.0879 70.5116 56.6659 25.7472 55.0112 26.5026Z" fill="#242D41"/>
<path d="M65.2823 65.9352C65.2823 65.9352 66.2817 66.5732 66.1128 67.1485C65.9499 67.6978 62.1779 67.4719 62.1585 67.3402C62.0312 66.4457 62.7325 66.126 62.7325 66.126C62.7325 66.126 61.4577 65.6792 61.7124 64.7214C61.9671 63.7636 62.4137 63.8274 62.4137 63.8274C62.4137 63.8274 61.6482 62.9957 61.9671 62.3591C62.2859 61.7224 63.0514 61.7838 63.0514 61.7838C63.0514 61.7838 62.35 61.0815 62.8608 60.6981C63.1921 60.4486 64.6603 60.6602 65.645 60.8367C66.3468 61.3361 66.7523 61.7409 66.6656 62.0708C66.5645 62.4547 65.6851 62.4695 65.5195 62.3826C65.7437 62.512 66.75 63.1099 66.75 63.5072C66.75 63.954 65.3796 63.8265 65.3796 63.8265C65.3796 63.8265 66.6868 64.7847 66.75 65.359C66.8133 65.9333 65.2823 65.9352 65.2823 65.9352Z" fill="#F7B7A0"/>
<path d="M103.464 52.5621C103.464 52.5621 100.788 52.819 98.9648 54.9162C97.1413 57.0133 91.1914 67.0274 89.7864 69.9239C88.3814 72.8204 87.4171 72.7104 87.4171 72.7104C87.4171 72.7104 83.2957 70.0445 79.4554 67.8452C78.0841 67.0598 77.0132 66.6024 76.2823 66.2387C75.4476 65.8229 74.2899 65.0957 73.7492 65.8557L71.0315 69.1902C70.5239 69.9054 70.5867 71.7729 71.163 72.4346C73.1143 74.6745 77.8534 80.5072 82.6235 83.083C88.9051 86.4762 89.5663 85.8695 90.7231 85.621C91.8798 85.3724 99.8128 78.5057 99.8128 78.5057L103.464 52.5621Z" fill="#242D41"/>
<path d="M88.8415 71.7456L87.0752 72.6461C89.7329 75.0297 89.6383 76.4634 90.3687 78.9644C90.3687 78.9644 91.9154 75.6632 88.8415 71.7456Z" fill="#2F3C54"/>
<path d="M116.295 130.032C115.204 130.184 114.049 130.339 112.832 130.499C112.198 130.582 111.547 130.665 110.876 130.748C108.338 131.065 106.031 131.217 103.923 131.235C101.383 131.257 99.1415 131.083 97.1639 130.77C97.0338 130.752 96.9055 130.73 96.7786 130.709C96.7136 130.698 96.6485 130.687 96.5853 130.675L96.4247 130.647C92.7007 129.972 90.4204 131.207 88.4248 129.938C88.8673 125.35 89.2433 122.034 89.4911 120.798C89.5562 120.474 98.1116 71.3289 97.8043 71.0831C96.5733 70.0911 94.7853 68.3894 94.4148 65.3197C94.4107 65.2909 94.4084 65.2619 94.4079 65.2328C94.4024 65.1025 94.3987 64.9741 94.4005 64.8438C94.4402 61.3393 97.2567 58.0635 100.814 54.7637C100.866 54.7174 100.917 54.6676 100.969 54.6204C100.969 54.6153 100.977 54.6116 100.977 54.6116C101.53 54.0974 102.095 53.5869 102.672 53.0786H102.678C102.908 52.8739 103.139 52.6674 103.374 52.4632C107.128 49.156 111.146 45.7679 113.451 42.0481C113.455 42.0444 113.458 42.0394 113.46 42.0338C113.484 42.0042 113.506 41.9734 113.527 41.9413C113.528 41.9386 113.53 41.9361 113.532 41.934C113.61 41.8429 113.709 41.7731 113.821 41.7311C114.715 41.3911 116.529 41.3329 118.416 41.3874C118.604 41.3929 118.781 41.3985 118.949 41.4054C120.96 41.4978 121.656 41.7348 122.463 41.8212C122.666 41.8429 124.45 42.6413 124.575 42.8077C125.831 44.4964 130.835 48.7956 129.881 59.1035C129.773 60.2729 129.507 61.616 129.14 63.0945C128.142 67.1276 126.403 72.1647 125.112 77.4087C124.178 81.2006 123.479 85.0993 123.464 88.8048C123.464 88.9004 123.464 88.9947 123.464 89.0908C123.477 91.6661 122.813 93.1215 123.128 95.404C123.129 95.4186 123.132 95.4331 123.135 95.4474C123.235 96.1515 123.43 96.9333 123.764 97.8527C123.802 97.9562 125.646 101.113 125.702 101.211C130.637 109.609 137.607 116.458 145.269 122.254C145.215 124.71 144.488 126.587 142.515 126.915C138.666 127.558 136.354 126.169 130.542 127.513C130.529 127.516 130.517 127.519 130.504 127.523C128.803 127.915 126.767 128.335 124.241 128.784C122.954 129.01 121.542 129.246 119.986 129.485C119.147 129.617 118.267 129.747 117.34 129.881" fill="#242D41"/>
<path d="M130.542 127.514C130.529 127.516 130.516 127.519 130.503 127.523C128.803 127.916 126.766 128.336 124.24 128.785C122.839 126.18 122.142 126.11 121.195 123.775C120.262 121.49 119.458 119.155 118.787 116.779C116.48 108.564 116.859 103.246 116.938 102.406C116.945 102.328 116.951 102.288 116.951 102.288C116.951 102.288 117.531 104.525 118.953 108.162C119.715 110.107 120.716 112.455 121.999 115.076C124.147 119.463 126.628 122.203 130.542 127.514Z" fill="#2F3C54"/>
<path d="M116.11 129.451C116.171 129.644 116.234 129.838 116.294 130.032C115.202 130.184 114.048 130.339 112.831 130.499C111.351 119.988 111.74 113.919 111.74 113.919C111.754 113.986 112.137 115.776 112.844 118.622C112.907 118.879 112.972 119.143 113.043 119.416C113.055 119.473 113.07 119.527 113.085 119.583C113.126 119.747 113.168 119.914 113.211 120.084C113.314 120.488 113.421 120.906 113.534 121.337C113.58 121.518 113.63 121.701 113.679 121.885C113.762 122.204 113.849 122.53 113.939 122.861C114.024 123.183 114.113 123.511 114.205 123.846C114.337 124.329 114.474 124.822 114.615 125.324C114.673 125.527 114.731 125.734 114.789 125.94C114.893 126.309 115.001 126.685 115.112 127.067C115.173 127.277 115.233 127.487 115.296 127.699C115.453 128.239 115.158 126.373 115.326 126.926C115.391 127.139 115.458 127.355 115.523 127.572C115.552 127.668 115.581 127.762 115.61 127.858C115.774 128.384 115.941 128.915 116.11 129.451Z" fill="#2F3C54"/>
<path d="M96.6163 129.5C96.6163 129.5 96.6015 129.925 96.5854 130.675L96.4248 130.647C96.5438 129.912 96.6163 129.5 96.6163 129.5Z" fill="#2F3C54"/>
<path d="M96.9926 126.048C97.0304 126.44 97.0419 126.829 97.0442 127.219C97.0465 127.608 97.0359 127.997 97.0212 128.385C97.0064 128.773 96.9773 129.161 96.9381 129.548C96.8989 129.935 96.8532 130.322 96.7789 130.709C96.7406 130.318 96.7286 129.928 96.7268 129.539C96.7249 129.149 96.7351 128.76 96.7503 128.372C96.7655 127.983 96.7964 127.595 96.8338 127.207C96.8712 126.82 96.9187 126.433 96.9926 126.048Z" fill="#161F2F"/>
<path d="M116.295 130.032C116.018 129.28 115.773 128.519 115.513 127.762C115.264 127.001 115.484 128.649 115.244 127.885C114.77 126.355 114.34 124.814 113.911 123.272C113.503 121.724 113.099 120.177 112.736 118.616L112.224 116.27C112.063 115.485 111.893 114.704 111.74 113.919C111.953 114.691 112.149 115.467 112.354 116.24L112.939 118.566C113.343 120.112 113.745 121.662 114.172 123.201C114.374 123.974 114.588 124.746 114.798 125.516L115.444 127.827L116.295 130.032Z" fill="#161F2F"/>
<path d="M130.503 127.523C129.714 126.499 129.412 127.861 128.668 126.801C127.925 125.742 127.22 124.656 126.528 123.562C125.144 121.372 123.87 119.115 122.676 116.816C121.5 114.506 120.406 112.158 119.436 109.756C118.954 108.554 118.498 107.342 118.069 106.119C117.654 104.893 117.255 103.661 116.933 102.407L116.905 102.29L116.939 102.405C117.316 103.642 117.741 104.864 118.197 106.074C118.653 107.283 119.126 108.486 119.63 109.678C120.635 112.058 121.731 114.397 122.917 116.695C124.088 118.998 125.362 121.246 126.704 123.455C127.373 124.56 128.064 125.652 128.777 126.73C129.484 127.81 129.762 126.463 130.503 127.523Z" fill="#161F2F"/>
<path d="M119.745 29.655C119.745 37.0212 116.108 37.2559 108.674 41.2576C106.635 42.3554 98.8245 36.7491 99.5605 25.6816C100.049 18.3311 99.4839 13.6868 110.178 13.6868C119.182 13.6868 119.745 22.2884 119.745 29.655Z" fill="#F7B7A0"/>
<path d="M119.864 27.8925C120.869 27.7108 121.507 26.5781 121.287 25.3624C121.068 24.1468 120.076 23.3086 119.07 23.4902C118.065 23.6719 117.428 24.8047 117.647 26.0204C117.866 27.236 118.858 28.0742 119.864 27.8925Z" fill="#D9A79C"/>
<path d="M118.979 41.3698C118.66 41.7718 111.296 50.4825 103.263 52.4923C107.277 48.9532 111.856 44.8004 114.276 40.7914C116.901 41.3135 116.901 41.3135 118.979 41.3698Z" fill="#D9A79C"/>
<path d="M98.5342 71.5719C97.3036 70.5874 94.7857 68.2278 94.4142 65.177C94.4098 65.1484 94.4073 65.1195 94.4069 65.0906C94.2306 61.4086 97.2062 57.9896 100.969 54.5405C98.8982 57.4712 97.8001 60.1953 96.9326 61.9566C95.9309 63.9914 94.5891 67.9445 98.5342 71.5719Z" fill="#2F3C54"/>
<path d="M93.8899 97.7658L95.1819 98.6359C95.2741 98.6987 96.5292 98.9681 96.603 98.8826C96.675 98.7259 118.094 72.4424 118.105 72.2779C118.135 72.0865 118.125 71.8911 118.076 71.7037C118.027 71.5164 117.939 71.3413 117.819 71.1894C117.699 71.0375 117.549 70.9121 117.378 70.8212C117.208 70.7302 117.02 70.6756 116.827 70.6608L95.3521 69.0215C95.3223 69.0193 95.2924 69.0231 95.2642 69.0326C95.2359 69.0422 95.2098 69.0573 95.1874 69.0771C95.1651 69.0969 95.1469 69.121 95.134 69.1479C95.1211 69.1749 95.1136 69.2042 95.1122 69.234C95.2132 69.4207 93.5794 97.6656 93.8899 97.7658Z" fill="white"/>
<path d="M95.0839 98.7823C95.0839 98.7823 93.792 97.9128 93.792 97.9119C93.2498 97.7081 95.1061 69.5732 94.9363 69.2248C94.939 69.1715 94.9523 69.1193 94.9755 69.0712C94.9986 69.0231 95.0311 68.9802 95.071 68.9448C95.1109 68.9094 95.1574 68.8824 95.2079 68.8653C95.2584 68.8481 95.3118 68.8412 95.3649 68.845L116.84 70.4838C117.057 70.5007 117.268 70.5623 117.461 70.6648C117.653 70.7673 117.822 70.9084 117.957 71.0794C118.244 71.4624 118.441 72.0621 118.188 72.5024C118.188 72.5024 96.7385 99.0004 96.7371 98.9981C96.6776 99.0679 96.5987 99.1094 96.1452 99.0378C95.7844 98.9851 95.4292 98.8995 95.0839 98.7823ZM117.93 72.2511C117.957 72.0836 117.948 71.9123 117.906 71.7482C117.863 71.584 117.787 71.4306 117.682 71.2974C117.577 71.1643 117.445 71.0545 117.296 70.9748C117.146 70.8951 116.982 70.8473 116.813 70.8345L95.3377 69.1957C95.2237 69.2192 93.9613 97.5561 93.9881 97.6208L95.2722 98.4852C95.4106 98.5444 96.2744 98.7241 96.5055 98.725C96.518 98.6941 117.931 72.2848 117.93 72.2502V72.2511Z" fill="#69BDC2"/>
<path d="M96.3216 98.8517L114.934 100.868L118.095 72.3408L97.7658 71.3978C97.6186 71.3911 97.4745 71.4423 97.3645 71.5406C97.2544 71.6388 97.1872 71.7763 97.1771 71.9236L95.4136 97.7659C95.3953 98.0294 95.4798 98.2896 95.6491 98.4921C95.8184 98.6945 96.0594 98.8234 96.3216 98.8517Z" fill="#A2DAE1"/>
<path d="M103.604 91.7813C103.544 89.6938 101.821 86.6804 100.01 85.6515C98.1992 84.6225 95.2863 83.5428 94.931 84.2275C94.5757 84.9122 99.5202 87.3393 98.6431 87.7389C97.7659 88.1386 95.6319 87.9838 94.8517 87.4585C94.0714 86.9332 94.1443 86.6666 94.1443 86.6666C94.1443 86.6666 93.0674 86.6504 92.8985 87.7048C92.7296 88.7591 93.2215 88.9606 93.2215 88.9606C93.2215 88.9606 92.2987 89.1537 92.4085 90.0052C92.5183 90.8567 93.1006 91.103 93.1006 91.103C93.1006 91.103 92.3434 91.6001 92.6946 92.3043C93.0457 93.0084 93.5759 92.9696 93.5759 92.9696C93.5759 92.9696 92.7822 93.8937 93.7032 94.5031C94.6242 95.1125 99.5539 95.3394 101.288 94.9041C103.023 94.4689 103.618 92.2756 103.604 91.7813Z" fill="#F7B7A0"/>
<path d="M117.162 86.6896L116.888 88.6551C120.361 87.8382 121.481 88.7369 123.947 89.5695C123.946 89.5695 122.129 86.4092 117.162 86.6896Z" fill="#D85F59"/>
<path d="M102.007 80.2039L112.428 80.8787L112.653 77.3879L102.232 76.7131L102.007 80.2039Z" fill="#75C3C9"/>
<path d="M121.399 39.2057C120.255 40.1076 118.938 41.028 117.467 42.1027C111.49 46.4721 105.085 44.3569 104.594 43.6542C104.529 43.5618 104.483 43.45 104.418 43.2245C104.418 43.2245 104.606 42.9066 104.577 42.7842C104.547 42.6617 104.224 42.4085 104.224 42.4085C103.856 40.6371 103.54 37.7018 103.54 37.7018C103.54 37.7018 105.369 40.6963 109.169 39.8503C109.775 39.7154 110.389 39.4483 111.012 39.1364C111.014 39.1367 111.016 39.1365 111.018 39.1359C111.02 39.1352 111.021 39.1342 111.023 39.1327C114.599 37.3442 118.175 33.5117 118.175 33.5117C118.175 33.5117 117.188 26.1852 116.56 24.7765C115.932 23.3678 114.376 18.2951 107.765 17.6612C101.154 17.0273 99.6362 23.6445 99.6362 23.6445C97.9784 11.2431 111.557 8.00614 117.962 9.84133C124.367 11.6765 125.909 18.8588 126.406 27.38C126.776 33.8069 124.907 36.4294 121.399 39.2057Z" fill="#E1ECEC"/>
<path d="M105.813 11.5993C108.139 11.0374 110.685 11.2832 112.865 12.3635C113.954 12.905 114.924 13.6738 115.741 14.5729C116.545 15.4842 117.219 16.5024 117.745 17.5987C118.787 19.7937 119.321 22.1959 119.306 24.6262C119.29 27.0385 118.83 29.454 117.867 31.6519C118.282 30.5297 118.583 29.3689 118.767 28.1867C118.967 27.0118 119.054 25.8205 119.028 24.629C119.018 24.0344 118.967 23.4421 118.904 22.852C118.833 22.2629 118.733 21.6777 118.601 21.0991C118.332 19.944 117.936 18.8224 117.419 17.7549C116.918 16.683 116.271 15.6857 115.496 14.7914C115.098 14.3576 114.68 13.9381 114.213 13.5786C113.748 13.2155 113.255 12.8911 112.737 12.6083C111.685 12.0571 110.545 11.6951 109.369 11.5387C108.188 11.3666 106.987 11.387 105.813 11.5993Z" fill="#E1ECEC"/>
<path d="M119.367 17.658C119.758 18.5557 120.071 19.4853 120.352 20.4255C120.624 21.3685 120.843 22.3305 120.955 23.3128L120.996 23.6824L121.018 24.052C121.04 24.2992 121.028 24.5487 121.028 24.7977C121.027 25.0468 120.998 25.2898 120.981 25.537C120.965 25.7842 120.939 26.0281 120.912 26.273C120.8 27.2546 120.609 28.2254 120.34 29.1759C120.066 30.1264 119.703 31.049 119.256 31.9315C118.807 32.8124 118.273 33.6464 117.66 34.4214C117.046 35.1934 116.352 35.898 115.589 36.5232C115.207 36.8326 114.81 37.1212 114.397 37.3876C113.988 37.6578 113.556 37.8924 113.107 38.089C113.967 37.627 114.753 37.0388 115.474 36.3883C115.836 36.0649 116.181 35.7225 116.506 35.3625C116.836 35.0068 117.143 34.6321 117.436 34.2467C118.598 32.6942 119.466 30.9414 119.996 29.0752C120.264 28.1442 120.458 27.1935 120.576 26.2319C120.608 25.9916 120.641 25.7514 120.657 25.5093C120.673 25.2672 120.703 25.0251 120.713 24.7848C120.723 24.5445 120.732 24.3052 120.717 24.064L120.705 23.7023L120.675 23.3409C120.582 22.3731 120.417 21.4136 120.182 20.4703C119.961 19.5213 119.683 18.5839 119.367 17.658Z" fill="#E1ECEC"/>
<path d="M122.205 33.9548C122.021 35.3335 121.103 37.2306 120.516 38.3695C119.59 39.7315 118.938 41.028 117.467 42.1027C111.49 46.4721 106.097 45.9611 104.86 44.5052C104.711 44.3292 104.377 43.9901 104.403 43.3285C104.41 43.1483 104.563 43.0346 104.518 42.8438C104.498 42.7638 104.35 42.5957 104.206 42.409C104.103 42.2855 104.017 42.1495 103.949 42.0043C103.618 41.1846 103.617 41.2821 103.579 40.4334C103.567 40.1561 103.791 39.6604 103.76 39.4867C103.704 39.1757 103.529 39.1212 103.5 38.8791C103.399 38.0788 103.537 37.7018 103.537 37.7018C103.537 37.7018 105.319 40.4144 109.166 39.8503C109.78 39.7579 110.386 39.4483 111.009 39.1364C111.012 39.1364 113.664 37.8113 113.668 37.8076C113.672 37.8039 115.827 37.1936 118.828 34.1442C121.033 31.9015 122.51 24.5616 122.51 24.5616C122.51 24.5616 123.004 27.9885 122.205 33.9548Z" fill="#E1ECEC"/>
<path d="M126.357 27.6143C126.234 28.72 126.031 29.8155 125.75 30.8919C125.476 31.9726 125.129 33.0334 124.711 34.067C124.285 35.0973 123.788 36.1064 123.162 37.0346C122.547 37.9665 121.784 38.8176 120.869 39.4497C121.278 39.0797 121.655 38.6747 121.994 38.2391C122.333 37.808 122.644 37.3548 122.924 36.8826C123.206 36.4123 123.47 35.9313 123.706 35.4351C123.942 34.9388 124.173 34.4408 124.377 33.9298C124.797 32.9133 125.151 31.8686 125.48 30.8152C125.642 30.2876 125.797 29.7572 125.941 29.2235C126.094 28.6922 126.225 28.1539 126.357 27.6143Z" fill="#E1ECEC"/>
<path d="M119.044 40.8436C118.87 41.1106 118.651 41.3223 118.431 41.5366C118.316 41.6364 118.201 41.739 118.084 41.836L117.715 42.11C117.655 42.1561 117.591 42.1988 117.526 42.238L117.333 42.3604C117.203 42.4404 117.079 42.5286 116.941 42.5956L116.539 42.81C116.471 42.8446 116.405 42.8839 116.336 42.9144L116.127 43.0068C115.847 43.1256 115.573 43.2628 115.285 43.3547L114.855 43.5067C114.714 43.5602 114.569 43.6065 114.423 43.6453L113.546 43.8884C113.251 43.9591 112.952 44.0136 112.656 44.0769L112.21 44.1693L111.76 44.2321L110.859 44.3583C110.558 44.3915 110.255 44.4086 109.953 44.4345L109.5 44.4701C109.349 44.4802 109.199 44.4992 109.047 44.4987L108.138 44.519L107.684 44.5288C107.533 44.532 107.382 44.5385 107.23 44.5288L105.414 44.4733L107.23 44.513C107.382 44.52 107.533 44.513 107.684 44.5075L108.138 44.4936L109.045 44.4659C109.197 44.4659 109.347 44.4447 109.498 44.4336L109.95 44.3938C110.251 44.3652 110.554 44.3476 110.854 44.3102L111.752 44.1767L112.2 44.1102L112.643 44.015C112.939 43.9494 113.236 43.8925 113.529 43.82L114.4 43.5705C114.546 43.5297 114.689 43.4816 114.83 43.4263L115.255 43.2716C115.543 43.1792 115.812 43.0405 116.089 42.919L116.295 42.8266C116.364 42.7957 116.428 42.7559 116.495 42.7213L116.893 42.5055C117.028 42.4381 117.15 42.3493 117.278 42.2694L117.467 42.147C117.531 42.1078 117.593 42.065 117.652 42.019L118.011 41.7459C118.126 41.6498 118.237 41.5477 118.35 41.4488C118.561 41.2405 118.779 41.0229 118.934 40.7784L119.044 40.8436Z" fill="#FAA022"/>
<path d="M119.701 41.356C118.473 42.7495 115.481 44.6946 111.773 45.006C107.792 45.3387 105.075 44.6036 105.075 44.6036C117.456 44.3121 118.989 40.8149 118.989 40.8149L119.701 41.356Z" fill="#E1ECEC"/>
<path d="M103.811 39.4575C104.237 39.8272 104.688 40.1668 105.161 40.474C105.631 40.7697 106.105 41.0635 106.63 41.253C106.888 41.3597 107.162 41.4128 107.433 41.4812C107.71 41.5122 107.987 41.5695 108.269 41.557C108.407 41.557 108.551 41.5736 108.691 41.557L109.112 41.514C109.254 41.4998 109.393 41.474 109.53 41.4369L109.945 41.3417L109.957 41.3759L109.546 41.5071C109.411 41.5564 109.272 41.5944 109.131 41.6208L108.704 41.7011C108.562 41.7321 108.416 41.7256 108.271 41.74C107.98 41.7705 107.689 41.7307 107.397 41.7155C107.11 41.6628 106.817 41.6231 106.539 41.5307C105.978 41.3639 105.422 41.1333 104.954 40.7738C104.841 40.6814 104.724 40.589 104.615 40.4929C104.506 40.3968 104.398 40.2961 104.303 40.1834C104.101 39.9713 103.926 39.7353 103.782 39.4806L103.811 39.4575Z" fill="#E1ECEC"/>
<path d="M104.494 42.7901C105.087 42.9405 105.693 43.0397 106.303 43.0867C106.91 43.1407 107.519 43.1626 108.129 43.1523C109.346 43.1274 110.558 42.9967 111.753 42.7619C112.949 42.5258 114.132 42.2343 115.226 41.7066C115.775 41.4478 116.304 41.1459 116.806 40.8038C117.316 40.4644 117.789 40.0735 118.219 39.6372C117.456 40.6075 116.446 41.3754 115.349 41.9552C114.798 42.2471 114.221 42.4853 113.625 42.6667C113.032 42.848 112.43 42.998 111.822 43.1163C110.606 43.3568 109.367 43.4644 108.127 43.437C106.893 43.3995 105.646 43.2318 104.494 42.7901Z" fill="#E1ECEC"/>
<path d="M131.666 54.9883C131.719 55.485 130.926 55.7414 130.454 55.4443L130.441 55.4383C130.401 55.4102 130.363 55.3793 130.327 55.3459C130.291 55.3085 130.25 55.2678 130.209 55.2271L130.205 55.2207C129.594 54.5738 129.583 52.8731 128.944 51.6076C128.753 51.2283 128.469 50.9036 128.118 50.6637C125.636 48.8728 119.563 50.0884 115.143 51.9416C113.116 52.7918 99.6761 56.4594 101.11 54.4495C101.391 52.7585 101.602 52.1934 102.441 51.2851C102.861 50.8309 103.502 50.3555 103.624 50.13C103.701 49.9854 103.403 48.5129 103.414 48.3577C103.567 46.0872 104.756 44.3722 104.756 44.3722C117.964 44.4812 119.645 41.3251 119.645 41.3251L120.597 41.5099L121.908 41.691L122.947 41.94C123.321 42.0195 123.674 42.2704 124.003 42.4644L125.123 43.1228C125.768 43.7228 126.378 44.3579 126.953 45.025C127.797 46.011 128.716 46.7484 129.71 47.8235C131.244 49.4776 131.487 53.3319 131.666 54.9883Z" fill="#E1ECEC"/>
<path d="M125.51 43.5405C125.932 44.0335 122.802 43.8903 122.28 43.9776C120.705 44.2525 119.227 46.6745 113.836 47.337C108.566 47.9871 105.875 45.7278 105.753 45.6215C105.871 45.6529 108.048 46.2402 112.005 46.0872C116.075 45.9311 117.857 44.0543 119.534 42.9246C120.116 42.531 121.726 42.0828 122.133 41.9202C122.135 41.9202 123.821 41.7792 125.51 43.5405Z" fill="#E1ECEC"/>
<path d="M131.665 54.9882C131.718 55.4849 130.925 55.7413 130.453 55.4442L130.44 55.4382L130.21 55.2257L130.205 55.2192C129.595 54.5724 129.584 52.8716 128.945 51.6061C128.753 51.2268 128.469 50.9021 128.119 50.6622C128.111 50.1478 128.167 49.6344 128.285 49.1338C128.583 47.8526 127.472 46.1934 126.849 45.3914C127.896 46.082 128.856 46.8963 129.709 47.8166C131.243 49.4776 131.486 53.3318 131.665 54.9882Z" fill="#E1ECEC"/>
<path d="M103.63 50.1092C104.552 50.294 105.482 50.3892 106.412 50.4451C107.342 50.4913 108.275 50.5481 109.211 50.5052C110.147 50.4622 111.085 50.3726 112.019 50.2811C112.487 50.2349 112.955 50.1841 113.421 50.1221C113.886 50.0602 114.356 49.9965 114.802 49.8657L114.817 49.899C114.366 50.0565 113.901 50.1369 113.438 50.228C112.974 50.319 112.508 50.3878 112.041 50.459C111.106 50.5883 110.174 50.7099 109.226 50.7921C108.282 50.8637 107.328 50.9099 106.381 50.8087C105.907 50.7624 105.437 50.6864 104.973 50.5814C104.507 50.4823 104.052 50.3362 103.615 50.1452L103.63 50.1092Z" fill="#E1ECEC"/>
<path d="M101.524 52.6018C101.822 52.667 102.12 52.7178 102.416 52.77C102.713 52.8222 103.01 52.8675 103.309 52.9021C103.905 52.9807 104.503 53.0223 105.111 53.0708C104.81 53.1176 104.505 53.1404 104.2 53.1391C103.894 53.1393 103.589 53.12 103.286 53.0814C102.983 53.043 102.682 52.985 102.387 52.9077C102.09 52.8336 101.801 52.7312 101.524 52.6018Z" fill="#E1ECEC"/>
<path d="M122.143 66.2419C122.143 66.2419 119.308 70.0491 117.826 74.7641C114.878 84.1471 112.225 98.489 112.225 98.489L123.465 98.7242L122.143 66.2419Z" fill="#07090C"/>
<path d="M93.8899 97.7658L95.1819 98.6359C95.2741 98.6987 96.5292 98.9681 96.603 98.8826C96.675 98.7259 118.094 72.4424 118.105 72.2779C118.135 72.0865 118.125 71.8911 118.076 71.7037C118.027 71.5164 117.939 71.3413 117.819 71.1894C117.699 71.0375 117.549 70.9121 117.378 70.8212C117.208 70.7302 117.02 70.6756 116.827 70.6608L95.3521 69.0215C95.3223 69.0193 95.2924 69.0231 95.2642 69.0326C95.2359 69.0422 95.2098 69.0573 95.1874 69.0771C95.1651 69.0969 95.1469 69.121 95.134 69.1479C95.1211 69.1749 95.1136 69.2042 95.1122 69.234C95.2132 69.4207 93.5794 97.6656 93.8899 97.7658Z" fill="white"/>
<path d="M95.0839 98.7823C95.0839 98.7823 93.792 97.9128 93.792 97.9119C93.2498 97.7081 95.1061 69.5732 94.9363 69.2248C94.939 69.1715 94.9523 69.1193 94.9755 69.0712C94.9986 69.0231 95.0311 68.9802 95.071 68.9448C95.1109 68.9094 95.1574 68.8824 95.2079 68.8653C95.2584 68.8481 95.3118 68.8412 95.3649 68.845L116.84 70.4838C117.057 70.5007 117.268 70.5623 117.461 70.6648C117.653 70.7673 117.822 70.9084 117.957 71.0794C118.244 71.4624 118.441 72.0621 118.188 72.5024C118.188 72.5024 96.7385 99.0004 96.7371 98.9981C96.6776 99.0679 96.5987 99.1094 96.1452 99.0378C95.7844 98.9851 95.4292 98.8995 95.0839 98.7823ZM117.93 72.2511C117.957 72.0836 117.948 71.9123 117.906 71.7482C117.863 71.584 117.787 71.4306 117.682 71.2974C117.577 71.1643 117.445 71.0545 117.296 70.9748C117.146 70.8951 116.982 70.8473 116.813 70.8345L95.3377 69.1957C95.2237 69.2192 93.9613 97.5561 93.9881 97.6208L95.2722 98.4852C95.4106 98.5444 96.2744 98.7241 96.5055 98.725C96.518 98.6941 117.931 72.2848 117.93 72.2502V72.2511Z" fill="#69BDC2"/>
<path d="M96.3216 98.8517L114.934 100.868L118.095 72.3408L97.7658 71.3978C97.6186 71.3911 97.4745 71.4423 97.3645 71.5406C97.2544 71.6388 97.1872 71.7763 97.1771 71.9236L95.4136 97.7659C95.3953 98.0294 95.4798 98.2896 95.6491 98.4921C95.8184 98.6945 96.0594 98.8234 96.3216 98.8517Z" fill="#A2DAE1"/>
<path d="M103.604 91.7813C103.544 89.6938 101.821 86.6804 100.01 85.6515C98.1992 84.6225 95.2863 83.5428 94.931 84.2275C94.5757 84.9122 99.5202 87.3393 98.6431 87.7389C97.7659 88.1386 95.6319 87.9838 94.8517 87.4585C94.0714 86.9332 94.1443 86.6666 94.1443 86.6666C94.1443 86.6666 93.0674 86.6504 92.8985 87.7048C92.7296 88.7591 93.2215 88.9606 93.2215 88.9606C93.2215 88.9606 92.2987 89.1537 92.4085 90.0052C92.5183 90.8567 93.1006 91.103 93.1006 91.103C93.1006 91.103 92.3434 91.6001 92.6946 92.3043C93.0457 93.0084 93.5759 92.9696 93.5759 92.9696C93.5759 92.9696 92.7822 93.8937 93.7032 94.5031C94.6242 95.1125 99.5539 95.3394 101.288 94.9041C103.023 94.4689 103.618 92.2756 103.604 91.7813Z" fill="#F7B7A0"/>
<path d="M104.052 89.064C105.233 89.3274 106.686 89.0395 108.566 89.3223C110.911 89.6758 116.869 88.6602 116.869 88.6602C117.296 85.2412 118.853 77.3719 119.274 73.9898C119.274 73.9898 125.226 55.3611 125.829 49.8657C130.085 52.2558 131.274 55.5076 129.782 70.063C129.782 70.063 129.204 84.026 127.926 88.8866C127.117 92.5829 124.886 94.9642 123.483 96.1539C120.031 98.4959 106.393 98.0944 101.925 95.9769C100.887 92.6429 102.684 88.718 104.052 89.064Z" fill="#242D41"/>
<path d="M117.162 86.6896L116.888 88.6551C120.361 87.8382 121.481 88.7369 123.947 89.5695C123.946 89.5695 122.129 86.4092 117.162 86.6896Z" fill="#2F3C54"/>
<path d="M102.007 80.2039L112.428 80.8787L112.653 77.3879L102.232 76.7131L102.007 80.2039Z" fill="#75C3C9"/>
<path d="M147.278 122.652H39.6338V125.311H147.278V122.652Z" fill="#ABD5D6"/>
<path d="M146.81 123.083H40.0996V124.874H146.81V123.083Z" fill="white"/>
<path d="M80.5574 124.874H40.041V123.083H80.4647L80.5574 124.874Z" fill="#F4574C"/>
<path d="M81.1733 121.932H79.5703V125.718H81.1733V121.932Z" fill="#ABD5D6"/>
<path d="M39.6348 125.945H147.278V129.785C147.278 130.455 147.012 131.098 146.539 131.572C146.065 132.046 145.423 132.312 144.754 132.312H42.1582C41.4889 132.312 40.847 132.046 40.3738 131.572C39.9006 131.098 39.6348 130.455 39.6348 129.785V125.945Z" fill="#093532"/>
<path d="M48.1064 129.217L44.5586 131.268V127.166L48.1064 129.217Z" fill="#FDF4F3"/>
<path d="M143.344 127.68H144.147V128.313H144.347V127.479H143.344V127.68Z" fill="#FDF4F3"/>
<path d="M141.253 128.313V127.68H142.156V127.479H141.053V128.313H141.253Z" fill="#FDF4F3"/>
<path d="M142.156 130.578H141.253V129.501H141.053V130.779H142.156V130.578Z" fill="#FDF4F3"/>
<path d="M144.147 129.501V130.578H143.344V130.779H144.347V129.501H144.147Z" fill="#FDF4F3"/>
<path d="M53.9313 127.166H52.8438V131.546H53.9313V127.166Z" fill="#FDF4F3"/>
<path d="M55.6325 127.166H54.5449V131.546H55.6325V127.166Z" fill="#FDF4F3"/>
<path d="M43.0861 118.886C43.5721 118.4 43.5721 117.611 43.0861 117.124C42.6001 116.637 41.8122 116.637 41.3262 117.124C40.8403 117.611 40.8403 118.4 41.3262 118.886C41.8122 119.373 42.6001 119.373 43.0861 118.886Z" fill="#C94020"/>
<path d="M45.8799 116.14H46.9005V118.635H48.4947V119.45H45.8799V116.14Z" fill="black"/>
<path d="M48.998 116.14H50.021V119.448H48.998V116.14Z" fill="black"/>
<path d="M50.4277 116.14H51.4931L52.2365 118.52L52.9701 116.14H54.006L52.7795 119.448H51.6722L50.4277 116.14Z" fill="black"/>
<path d="M54.3393 116.14H57.0764V116.848H55.3641V117.373H56.9522V118.048H55.3641V118.7H57.1225V119.449H54.3379L54.3393 116.14Z" fill="black"/>
<path d="M61.726 96.2814H49.5928V97.375H61.726V96.2814Z" fill="#F2F9F9"/>
<path d="M65.7555 99.6801H49.5928V100.774H65.7555V99.6801Z" fill="#F2F9F9"/>
<path d="M75.5637 102.906H49.5928V104H75.5637V102.906Z" fill="#F2F9F9"/>
<path d="M75.5636 99.6801H67.4824V100.774H75.5636V99.6801Z" fill="#F2F9F9"/>
<path d="M75.5629 96.2814H63.4297V97.375H75.5629V96.2814Z" fill="#F2F9F9"/>
<path d="M57.4278 88.8657H49.3467V89.9594H57.4278V88.8657Z" fill="#F2F9F9"/>
<path d="M61.6987 88.8949H58.5371V89.9885H61.6987V88.8949Z" fill="#F2F9F9"/>
<path d="M61.6987 92.3213H49.5654V93.4149H61.6987V92.3213Z" fill="#F2F9F9"/>
<path d="M73.5112 92.7145C73.9195 92.4207 73.9518 91.6602 73.6034 90.5739C73.2574 89.4988 72.5791 88.2277 71.6932 86.9941C70.8073 85.7605 69.8199 84.7121 68.9118 84.0417C67.9945 83.3644 67.2646 83.1532 66.8562 83.4471C66.4479 83.7409 66.4156 84.5014 66.764 85.5877C67.11 86.6628 67.7883 87.9343 68.6742 89.1675C69.5601 90.4007 70.5475 91.4495 71.4556 92.1199C72.0042 92.5251 72.4859 92.7635 72.8721 92.8268C73.1333 92.8684 73.3469 92.8328 73.5112 92.7145ZM68.8735 84.0925C69.7761 84.7593 70.7593 85.8021 71.642 87.0311C72.5247 88.2601 73.1993 89.526 73.543 90.5933C73.8835 91.6514 73.8595 92.3865 73.4752 92.6632C73.0908 92.94 72.3872 92.7288 71.4939 92.0691C70.5914 91.4023 69.6086 90.3595 68.7254 89.1305C67.8423 87.9015 67.1682 86.6356 66.8244 85.5683C66.4839 84.5102 66.5083 83.7751 66.8922 83.4984C67.0436 83.3898 67.2438 83.3565 67.4856 83.3958C67.8589 83.4568 68.3314 83.692 68.8735 84.0925Z" fill="#F2F9F9"/>
<path d="M67.8275 91.4966C68.9169 91.0849 70.2269 90.3461 71.5188 89.4174C72.8108 88.4883 73.9251 87.4797 74.6619 86.5769C75.4067 85.6639 75.677 84.963 75.4168 84.604C75.1566 84.245 74.4105 84.2769 73.3091 84.6932C72.2202 85.1053 70.9098 85.8436 69.6178 86.7723C68.3259 87.701 67.2111 88.7128 66.4747 89.6133C65.73 90.5263 65.4596 91.2268 65.7193 91.5858C65.807 91.7077 65.95 91.7849 66.1471 91.8168C66.5282 91.8791 67.1017 91.772 67.8275 91.4966ZM75.3647 84.6405C75.6009 84.9695 75.3264 85.6602 74.6121 86.5348C73.8789 87.4335 72.7665 88.4384 71.481 89.3643C70.1955 90.2902 68.8897 91.0276 67.8054 91.4361C66.7488 91.8357 66.0059 91.8764 65.771 91.5474C65.5362 91.2184 65.8093 90.5277 66.524 89.6531C67.2572 88.7544 68.3697 87.749 69.6552 86.8231C70.9407 85.8972 72.2465 85.1598 73.3308 84.7514C74.0427 84.482 74.6121 84.3758 74.9794 84.4358C75.158 84.4654 75.2885 84.5333 75.3656 84.6405H75.3647Z" fill="#F2F9F9"/>
<path d="M74.5327 90.0158C75.672 89.891 76.3387 89.5815 76.4102 89.1435C76.4817 88.7055 75.9488 88.1995 74.9079 87.7181C73.8789 87.2422 72.4735 86.843 70.9504 86.594C69.4272 86.345 67.9683 86.2752 66.8438 86.3985C65.7046 86.5233 65.0378 86.8329 64.9663 87.2709C64.8948 87.7089 65.4277 88.2148 66.4691 88.6962C67.4976 89.1721 68.9031 89.5713 70.4262 89.8204C71.9493 90.0694 73.4064 90.1392 74.5327 90.0158ZM74.8811 87.7759C75.8787 88.2379 76.4135 88.7318 76.3479 89.1333C76.2824 89.5348 75.6184 89.8333 74.5258 89.953C73.4051 90.0754 71.9516 90.0066 70.434 89.758C68.9165 89.5094 67.517 89.1111 66.4931 88.6389C65.4956 88.1769 64.9608 87.6825 65.0263 87.281C65.0918 86.8795 65.7558 86.581 66.8484 86.4614C67.9692 86.3389 69.4226 86.4083 70.9402 86.6564C72.4578 86.9045 73.8572 87.3023 74.8811 87.7759Z" fill="#F2F9F9"/>
<path d="M75.3487 86.4863C75.3324 86.5865 75.2868 86.6796 75.2177 86.7539C75.1485 86.8281 75.0589 86.8802 74.9602 86.9035C74.8616 86.9267 74.7582 86.9202 74.6632 86.8846C74.5682 86.8491 74.4859 86.7861 74.4267 86.7038C74.3674 86.6214 74.3339 86.5232 74.3304 86.4218C74.3268 86.3203 74.3534 86.2201 74.4068 86.1337C74.4601 86.0474 74.5379 85.9788 74.6301 85.9367C74.7224 85.8946 74.825 85.8809 74.9251 85.8972C75.0593 85.9191 75.1793 85.9934 75.2587 86.1039C75.3382 86.2144 75.3705 86.3519 75.3487 86.4863Z" fill="#F2F9F9"/>
<path d="M66.337 86.74C66.3193 86.8489 66.2697 86.9501 66.1945 87.0308C66.1194 87.1115 66.022 87.1681 65.9148 87.1934C65.8075 87.2187 65.6952 87.2117 65.5919 87.1731C65.4887 87.1345 65.3992 87.0661 65.3347 86.9766C65.2703 86.8871 65.2338 86.7804 65.2299 86.6702C65.2259 86.5599 65.2547 86.4509 65.3126 86.357C65.3704 86.2631 65.4548 86.1885 65.555 86.1426C65.6552 86.0967 65.7668 86.0816 65.8756 86.0992C65.948 86.1108 66.0173 86.1366 66.0797 86.1751C66.1421 86.2136 66.1963 86.2641 66.2392 86.3237C66.282 86.3832 66.3127 86.4506 66.3295 86.5221C66.3463 86.5935 66.3488 86.6676 66.337 86.74Z" fill="#F2F9F9"/>
<path d="M71.5895 91.7184C71.5737 91.8146 71.5298 91.9039 71.4633 91.9752C71.3968 92.0464 71.3108 92.0962 71.216 92.1185C71.1212 92.1407 71.0219 92.1343 70.9308 92.1001C70.8396 92.0659 70.7607 92.0053 70.7038 91.9262C70.647 91.847 70.6149 91.7528 70.6116 91.6553C70.6083 91.5579 70.6339 91.4617 70.6852 91.3788C70.7364 91.296 70.8111 91.2302 70.8997 91.1898C70.9883 91.1494 71.0869 91.1362 71.183 91.1519C71.2468 91.1624 71.308 91.1853 71.363 91.2194C71.418 91.2536 71.4657 91.2982 71.5035 91.3508C71.5412 91.4034 71.5682 91.463 71.583 91.526C71.5978 91.5891 71.6 91.6545 71.5895 91.7184Z" fill="#F2F9F9"/>
<path d="M71.6313 88.4056C71.6705 88.1647 71.6376 87.9177 71.5367 87.6955C71.4358 87.4734 71.2715 87.2862 71.0644 87.1575C70.8573 87.0288 70.6168 86.9644 70.3733 86.9725C70.1297 86.9805 69.894 87.0607 69.6959 87.2028C69.4977 87.3449 69.3461 87.5425 69.2601 87.7709C69.174 87.9992 69.1575 88.2479 69.2125 88.4856C69.2675 88.7234 69.3917 88.9394 69.5692 89.1066C69.7468 89.2738 69.9698 89.3845 70.2101 89.4248H70.2148C70.5375 89.4774 70.8679 89.3996 71.1335 89.2085C71.3991 89.0175 71.5781 88.7287 71.6313 88.4056ZM71.5787 88.3968C71.5277 88.7059 71.3565 88.9822 71.1025 89.1651C70.8485 89.348 70.5324 89.4227 70.2235 89.3726H70.2189C69.9243 89.3226 69.6596 89.1626 69.4782 88.9249C69.2969 88.6871 69.2123 88.3893 69.2415 88.0916C69.2708 87.7938 69.4118 87.5183 69.636 87.3205C69.8602 87.1227 70.1509 87.0175 70.4496 87.026C70.5009 87.0278 70.5521 87.0329 70.6028 87.0412C70.9116 87.0917 71.1878 87.2628 71.3707 87.5169C71.5537 87.7711 71.6285 88.0875 71.5787 88.3968Z" fill="#F2F9F9"/>
<path d="M53.6817 82.0642V81.8863C53.6816 81.8221 53.6561 81.7606 53.6108 81.7152C53.5655 81.6698 53.504 81.6443 53.44 81.6442H52.7751C53.1262 81.1881 53.702 80.8125 53.6674 80.1846C53.6827 79.4158 52.9878 79.1515 52.3649 79.4357C52.154 79.577 52.0705 79.7591 52.0225 79.9975C52.0156 80.0314 52.0157 80.0663 52.023 80.1002C52.0303 80.134 52.0445 80.1659 52.0648 80.194C52.085 80.222 52.1109 80.2455 52.1407 80.263C52.1705 80.2804 52.2037 80.2915 52.238 80.2955L52.328 80.3057C52.3865 80.3118 52.4454 80.2971 52.4942 80.264C52.543 80.231 52.5786 80.1817 52.5947 80.125C52.7358 79.6496 53.2868 79.9711 53.0173 80.4738C52.5665 81.099 51.9801 81.4723 51.9395 82.3063H53.44C53.504 82.3061 53.5655 82.2806 53.6108 82.2352C53.6561 82.1898 53.6816 82.1283 53.6817 82.0642Z" fill="#F2F9F9"/>
<path d="M54.9648 81.1697H55.5112V81.9334H55.9726V81.1697H56.523V80.5256H55.9739V79.7577H55.5125V80.5256H54.9662L54.9648 81.1697Z" fill="#F2F9F9"/>
<path d="M59.5046 82.0273V81.9233C59.5046 81.8498 59.4754 81.7793 59.4235 81.7273C59.3716 81.6753 59.3011 81.6461 59.2277 81.6461H58.5988C58.9504 81.1901 59.5263 80.8145 59.4917 80.1866C59.5069 79.4177 58.812 79.1535 58.1891 79.4376C57.9764 79.5804 57.8929 79.7638 57.8453 80.0059C57.839 80.0393 57.8397 80.0737 57.8473 80.1069C57.8549 80.1401 57.8693 80.1713 57.8895 80.1986C57.9097 80.226 57.9354 80.2488 57.9649 80.2657C57.9944 80.2827 58.027 80.2933 58.0608 80.297L58.1531 80.3076C58.2115 80.3139 58.2703 80.2993 58.319 80.2664C58.3677 80.2335 58.4032 80.1845 58.4193 80.1279C58.5578 79.6511 59.1115 79.9726 58.842 80.4758C58.3912 81.1009 57.8047 81.4742 57.7637 82.3082H59.2277C59.2644 82.3082 59.3007 82.3009 59.3345 82.2868C59.3684 82.2726 59.399 82.2518 59.4248 82.2257C59.4506 82.1996 59.4709 82.1686 59.4846 82.1345C59.4983 82.1005 59.5051 82.064 59.5046 82.0273Z" fill="#F2F9F9"/>
<path d="M60.7871 80.6791H62.3444V80.0322H60.7871V80.6791ZM60.7871 81.6563H62.3444V81.0122H60.7871V81.6563Z" fill="#F2F9F9"/>
<path d="M64.6269 81.7644V82.0633C64.627 82.1278 64.6527 82.1896 64.6983 82.2352C64.7439 82.2808 64.8056 82.3064 64.8701 82.3064H64.8904C64.9547 82.3064 65.0165 82.2808 65.062 82.2352C65.1075 82.1896 65.1331 82.1278 65.1331 82.0633V81.7644C65.1332 81.7632 65.1337 81.7621 65.1345 81.7613C65.1354 81.7604 65.1365 81.7599 65.1377 81.7598H65.164C65.2252 81.7598 65.2838 81.7354 65.3271 81.6921C65.3704 81.6488 65.3947 81.59 65.3947 81.5288V81.3638C65.3947 81.3026 65.3704 81.2438 65.3271 81.2005C65.2838 81.1571 65.2252 81.1328 65.164 81.1328H65.1377C65.1365 81.1327 65.1354 81.1322 65.1345 81.1313C65.1337 81.1305 65.1332 81.1294 65.1331 81.1282V79.6598C65.1331 79.5741 65.099 79.4918 65.0385 79.4312C64.9779 79.3705 64.8957 79.3364 64.8101 79.3364C64.7544 79.3364 64.6996 79.3508 64.6511 79.3783C64.6026 79.4057 64.562 79.4453 64.5332 79.4931L63.6676 80.9323C63.6034 81.039 63.5694 81.1612 63.5693 81.2857V81.5422C63.5695 81.6008 63.5928 81.657 63.6342 81.6985C63.6756 81.74 63.7318 81.7634 63.7904 81.7635H64.6209C64.6213 81.7631 64.6219 81.7629 64.6224 81.7627C64.623 81.7626 64.6235 81.7625 64.6241 81.7626C64.6247 81.7627 64.6252 81.7629 64.6257 81.7632C64.6262 81.7635 64.6266 81.7639 64.6269 81.7644ZM64.6227 81.13H64.0755C64.0747 81.13 64.074 81.1297 64.0733 81.1293C64.0726 81.1289 64.0721 81.1283 64.0717 81.1276C64.0714 81.1269 64.0712 81.1261 64.0712 81.1253C64.0712 81.1246 64.0714 81.1238 64.0718 81.1231L64.619 80.2231C64.6193 80.2223 64.6199 80.2215 64.6206 80.221C64.6213 80.2205 64.6221 80.2203 64.623 80.2203C64.6238 80.2203 64.6247 80.2205 64.6254 80.221C64.6261 80.2215 64.6266 80.2223 64.6269 80.2231V81.1231C64.6273 81.1238 64.6275 81.1246 64.6275 81.1255C64.6275 81.1263 64.6273 81.1271 64.6269 81.1278C64.6264 81.1285 64.6258 81.1291 64.6251 81.1295C64.6244 81.1299 64.6236 81.1301 64.6227 81.13Z" fill="#F2F9F9"/>
<path d="M51.0646 2.9187H77.365C79.906 2.9187 81.9657 4.26737 81.9657 5.93115V16.0034C81.9657 17.4394 80.4306 18.6398 78.3773 18.942V24.454L70.9827 19.0159H51.0646C48.5236 19.0159 46.4639 17.6672 46.4639 16.0034V5.93115C46.4643 4.26737 48.5236 2.9187 51.0646 2.9187Z" fill="#365F5F"/>
<path d="M58.2215 6.5087H78.0709C78.1831 6.5087 78.2744 6.43755 78.2744 6.34976C78.2744 6.26197 78.1821 6.19128 78.0709 6.19128H58.2215C58.1089 6.19128 58.0176 6.26244 58.0176 6.34976C58.0176 6.43708 58.1089 6.5087 58.2215 6.5087Z" fill="#F9E0BB"/>
<path d="M49.2884 6.5087H54.7091C54.8217 6.5087 54.9126 6.43755 54.9126 6.34976C54.9126 6.26197 54.8203 6.19128 54.7091 6.19128H49.2884C49.1759 6.19128 49.085 6.26244 49.085 6.34976C49.085 6.43708 49.1759 6.5087 49.2884 6.5087Z" fill="#F9E0BB"/>
<path d="M66.0082 9.38895H78.0704C78.1825 9.38895 78.2738 9.3178 78.2738 9.23001C78.2738 9.14222 78.1816 9.07153 78.0704 9.07153H66.0082C65.896 9.07153 65.8047 9.14269 65.8047 9.23001C65.8047 9.31733 65.896 9.38895 66.0082 9.38895Z" fill="#F9E0BB"/>
<path d="M49.2884 9.38895H60.4352C60.5478 9.38895 60.6387 9.3178 60.6387 9.23001C60.6387 9.14222 60.5464 9.07153 60.4352 9.07153H49.2884C49.1759 9.07153 49.085 9.14269 49.085 9.23001C49.085 9.31733 49.1759 9.38895 49.2884 9.38895Z" fill="#F9E0BB"/>
<path d="M63.4124 12.3066H78.0705C78.1826 12.3066 78.274 12.2355 78.274 12.1477C78.274 12.0599 78.1817 11.9888 78.0705 11.9888H63.4115C63.2994 11.9888 63.208 12.0599 63.208 12.1477C63.208 12.2355 63.3003 12.3066 63.4124 12.3066Z" fill="#F9E0BB"/>
<path d="M49.2884 12.3066H56.3125C56.4251 12.3066 56.516 12.2355 56.516 12.1477C56.516 12.0599 56.4237 11.9888 56.3125 11.9888H49.2884C49.1759 11.9888 49.085 12.0599 49.085 12.1477C49.085 12.2355 49.1759 12.3066 49.2884 12.3066Z" fill="#F9E0BB"/>
<path d="M49.2884 14.9264H78.0707C78.1829 14.9264 78.2742 14.8553 78.2742 14.7675C78.2742 14.6797 78.1819 14.609 78.0707 14.609H49.2884C49.1759 14.609 49.085 14.6797 49.085 14.7675C49.085 14.8553 49.1759 14.9264 49.2884 14.9264Z" fill="#F9E0BB"/>
<path d="M21.49 154.221C21.3079 156.155 21.1658 158.093 21.0637 160.033C20.9566 161.974 20.8892 163.915 20.8846 165.855C20.8846 166.34 20.8886 166.824 20.8966 167.31C20.9046 167.795 20.92 168.279 20.9428 168.762C20.9824 169.73 21.0314 170.696 21.1019 171.659C21.1352 172.141 21.1804 172.622 21.2344 173.101C21.2884 173.58 21.3534 174.058 21.4323 174.533L21.4965 174.889L21.5684 175.243L21.6487 175.595C21.6792 175.711 21.7078 175.828 21.741 175.944C21.8634 176.41 22.0305 176.863 22.2398 177.297L22.201 177.32C21.9242 176.916 21.7161 176.466 21.5412 176.007C21.3711 175.546 21.2301 175.075 21.119 174.596C21.0032 174.119 20.9165 173.637 20.8376 173.153C20.7587 172.67 20.7024 172.183 20.653 171.697C20.6304 171.454 20.6069 171.211 20.5893 170.967C20.5718 170.724 20.557 170.48 20.5432 170.236C20.5178 169.749 20.5044 169.261 20.497 168.773C20.4887 167.797 20.4983 166.822 20.5256 165.849C20.5755 163.902 20.6881 161.958 20.8403 160.018C20.9197 159.049 21.0094 158.08 21.1093 157.113C21.1592 156.629 21.2116 156.146 21.2667 155.663C21.3234 155.18 21.382 154.697 21.4466 154.215L21.49 154.221Z" fill="#365F5F"/>
<path d="M27.9465 156.035C27.4558 157.808 27.0081 159.592 26.6033 161.386C26.2042 163.179 25.8447 164.984 25.6039 166.799C25.5481 167.251 25.5116 167.703 25.495 168.158C25.4784 168.613 25.483 169.068 25.5019 169.523C25.537 170.433 25.6136 171.343 25.7146 172.249C25.9167 174.066 26.2342 175.874 26.6125 177.676L26.5696 177.689C26.4086 177.255 26.272 176.814 26.141 176.371C26.0773 176.149 26.0158 175.927 25.9564 175.703C25.926 175.592 25.8978 175.48 25.8701 175.368C25.8424 175.255 25.8143 175.144 25.7875 175.031C25.6782 174.582 25.5845 174.129 25.495 173.675C25.4055 173.221 25.3354 172.763 25.268 172.305L25.2218 171.96L25.1812 171.615C25.1665 171.5 25.1572 171.384 25.1462 171.269C25.1351 171.154 25.1236 171.038 25.1157 170.922C25.0783 170.46 25.0613 169.995 25.0557 169.53C25.0456 168.599 25.1094 167.668 25.2468 166.747L25.3575 166.062C25.3746 165.948 25.3963 165.835 25.4175 165.721L25.4802 165.38L25.543 165.04L25.6113 164.701C25.6574 164.474 25.7036 164.249 25.7497 164.023C25.9449 163.121 26.1585 162.224 26.3832 161.331C26.6079 160.437 26.8539 159.55 27.1062 158.664C27.3586 157.778 27.6212 156.896 27.9022 156.019L27.9465 156.035Z" fill="#365F5F"/>
<path d="M25.4235 166.882C24.7371 167.278 24.0745 167.714 23.4395 168.188C23.1217 168.424 22.8118 168.668 22.5097 168.921C22.2066 169.172 21.9099 169.434 21.6298 169.707C21.348 169.978 21.0809 170.265 20.8297 170.565C20.7647 170.638 20.7042 170.714 20.6424 170.789C20.5806 170.864 20.5164 170.937 20.4578 171.014L20.2733 171.24C20.2147 171.317 20.1547 171.393 20.0947 171.471C20.0347 171.548 19.9784 171.625 19.9203 171.702L19.8331 171.818C19.8035 171.857 19.7786 171.898 19.7505 171.938C19.696 172.018 19.6393 172.097 19.5858 172.178C19.5322 172.258 19.4819 172.342 19.4293 172.424C19.2255 172.76 19.0393 173.107 18.8715 173.463L18.8281 173.451C18.884 173.048 18.9925 172.654 19.1511 172.279C19.1922 172.186 19.2337 172.094 19.2766 172.001C19.3195 171.909 19.3689 171.821 19.4173 171.73C19.4418 171.684 19.4635 171.637 19.4916 171.596L19.5705 171.466C19.625 171.379 19.6762 171.29 19.7353 171.208C19.7943 171.125 19.8511 171.04 19.9106 170.958C19.9701 170.875 20.0366 170.798 20.0998 170.718C20.163 170.638 20.2317 170.565 20.2986 170.487C20.3655 170.41 20.4343 170.337 20.5063 170.265C20.7887 169.975 21.0904 169.707 21.3922 169.441C21.6939 169.176 22.0091 168.926 22.3298 168.686C22.6504 168.447 22.9813 168.221 23.3167 168.004C23.6522 167.787 23.9959 167.584 24.3438 167.389C24.5176 167.292 24.6928 167.197 24.8694 167.105C25.047 167.012 25.2251 166.926 25.4065 166.843L25.4235 166.882Z" fill="#365F5F"/>
<path d="M17.9282 166.843C18.2079 167.011 18.4764 167.194 18.7403 167.385C19.0042 167.577 19.2603 167.779 19.5109 167.989C19.7614 168.198 20.0027 168.421 20.2367 168.651C20.4706 168.882 20.6921 169.126 20.9029 169.38C21.1168 169.635 21.3171 169.901 21.5028 170.177C21.6891 170.459 21.8396 170.763 21.9508 171.082C22.0631 171.403 22.1288 171.739 22.146 172.08C22.1652 172.417 22.1182 172.755 22.0076 173.074L21.9614 173.067C21.9488 172.749 21.9052 172.433 21.8313 172.123C21.7571 171.822 21.6567 171.528 21.5314 171.245C21.4063 170.962 21.2688 170.684 21.1203 170.407C21.0468 170.268 20.9682 170.132 20.8845 169.997C20.8014 169.863 20.7124 169.731 20.6187 169.603C20.4318 169.346 20.2302 169.098 20.0189 168.857C19.8076 168.617 19.5879 168.382 19.3595 168.156C19.1311 167.93 18.8949 167.71 18.6527 167.497C18.5315 167.39 18.4084 167.285 18.2835 167.183C18.1589 167.08 18.0325 166.978 17.9033 166.882L17.9282 166.843Z" fill="#365F5F"/>
<path d="M22.9169 153.995C23.0045 154.473 23.0691 154.952 23.1365 155.433L23.2251 156.154C23.2546 156.394 23.2782 156.635 23.3045 156.876L23.3437 157.238L23.3774 157.599L23.4447 158.323C23.4858 158.806 23.5209 159.289 23.5596 159.772C23.6902 161.706 23.7603 163.644 23.7973 165.582L23.8217 167.036L23.8286 168.49V169.217C23.8286 169.338 23.8249 169.46 23.8226 169.581L23.8143 169.944L23.7926 170.671L23.7663 171.398C23.7202 172.368 23.6551 173.333 23.585 174.3C23.5019 175.266 23.4051 176.23 23.2869 177.193L23.2408 177.19C23.2302 176.22 23.2468 175.249 23.2676 174.284C23.2676 173.8 23.2805 173.317 23.2874 172.833C23.2911 172.591 23.2985 172.35 23.3035 172.108L23.3123 171.746L23.3155 171.383L23.3275 170.658L23.3469 169.935C23.3525 169.694 23.3635 169.452 23.3677 169.211L23.3843 168.486L23.424 167.036L23.4387 165.586C23.4466 163.653 23.4217 161.719 23.3358 159.787C23.3118 159.304 23.2897 158.821 23.2643 158.338L23.2182 157.614L23.1951 157.252L23.167 156.891C23.1476 156.649 23.1314 156.408 23.1093 156.168L23.0424 155.445C22.9921 154.964 22.9441 154.483 22.873 154.005L22.9169 153.995Z" fill="#365F5F"/>
<path d="M19.6805 160.444C19.896 161.067 20.099 161.691 20.2946 162.322C20.4903 162.953 20.6804 163.582 20.864 164.216C21.0477 164.851 21.2193 165.486 21.3859 166.124C21.5524 166.762 21.7089 167.403 21.8537 168.047C22.1458 169.333 22.442 170.626 22.5685 171.948C22.6369 172.608 22.6688 173.271 22.664 173.935C22.6584 174.101 22.6548 174.267 22.6474 174.434C22.64 174.6 22.6211 174.766 22.6072 174.931C22.6045 174.972 22.598 175.014 22.5925 175.055L22.5749 175.179C22.5634 175.261 22.5523 175.344 22.5399 175.426C22.5103 175.59 22.473 175.752 22.4365 175.913L22.3904 175.906C22.4545 174.591 22.2981 173.294 22.12 172C22.0309 171.353 21.9303 170.706 21.8325 170.059C21.7347 169.412 21.6267 168.765 21.4998 168.119C21.373 167.472 21.2378 166.832 21.0933 166.191C20.9489 165.55 20.8022 164.909 20.6448 164.271C20.3354 162.993 19.999 161.721 19.6357 160.456L19.6805 160.444Z" fill="#365F5F"/>
<path d="M33.5795 177.143C33.5795 177.552 33.5663 177.95 33.5398 178.336C33.2464 182.69 31.3301 185.563 28.5838 187.03V188.186H18.7336V187.002H18.7548C15.7215 185.362 13.6641 182.036 13.6641 177.145C13.6599 175.505 13.9764 173.88 14.5957 172.362H32.6488C33.2676 173.88 33.5838 175.504 33.5795 177.143Z" fill="#165151"/>
<path d="M9.36709 160.967C13.9604 164.709 16.4543 163.604 19.3335 161.194C19.3585 161.173 19.3834 161.151 19.4078 161.13C21.6932 159.121 21.5511 154.631 17.9313 152.626C14.2728 150.599 14.6295 152.745 10.403 150.5C6.17644 148.255 5.13319 147.725 5.13319 147.725C5.13319 147.725 5.13319 147.779 5.1295 147.878C5.10827 149.116 5.12212 157.507 9.36709 160.967Z" fill="#728F8F"/>
<path d="M5.12988 147.881C8.06076 149.874 12.4686 151.987 12.8705 154.964C13.2599 157.849 15.9846 160.577 19.4087 161.13C21.694 159.121 21.5519 154.631 17.9322 152.626C14.2737 150.599 14.6303 152.745 10.4038 150.5C6.17728 148.255 5.13404 147.725 5.13404 147.725C5.13404 147.725 5.13173 147.781 5.12988 147.881Z" fill="#365F5F"/>
<path d="M16.7649 171.302C14.8731 171.52 14.0094 170.546 10.2816 170.656C7.24049 170.745 4.33775 172.062 0.176758 174.768C0.176758 174.768 0.192446 174.367 0.273193 173.72C0.560651 171.432 1.66527 166.074 5.79489 164.596C11.0121 162.732 17.643 163.123 19.1809 165.256C19.2055 165.287 19.2283 165.32 19.2491 165.354C19.4768 165.718 19.6249 166.126 19.6838 166.551C19.992 168.651 18.3416 171.122 16.7649 171.302Z" fill="#B9C7C7"/>
<path d="M27.9154 144.932C27.8379 149.796 26.8287 152.695 23.2381 153.485L23.197 153.494C22.7596 153.586 22.2871 153.666 21.7768 153.725C20.3625 153.893 17.9194 152.048 17.757 148.705C17.7548 148.653 17.753 148.601 17.7514 148.548C17.739 148.044 17.7747 147.541 17.858 147.043C18.0273 146.015 18.3836 144.843 18.8302 143.653C20.2869 139.769 22.7005 135.681 22.7005 135.681C22.7005 135.681 24.9886 138.737 26.6982 141.937C27.1534 142.776 27.5577 143.641 27.9089 144.528C27.9154 144.669 27.9154 144.803 27.9154 144.932Z" fill="#728F8F"/>
<path d="M27.9153 144.932C27.8378 149.796 26.8287 152.694 23.238 153.485L23.1969 153.494C22.7255 153.592 22.2474 153.656 21.7666 153.683C20.6781 153.749 18.8338 151.912 17.756 148.707C17.7538 148.655 17.752 148.603 17.7504 148.55C17.738 148.046 17.7737 147.542 17.857 147.045C18.0264 146.017 18.3826 144.845 18.8292 143.654C21.5336 145.502 24.1267 150.485 23.9786 149.803C23.8623 149.268 25.6309 144.648 26.6972 141.939C27.1524 142.777 27.5567 143.643 27.9079 144.53C27.9153 144.669 27.9153 144.803 27.9153 144.932Z" fill="#558181"/>
<path d="M24.27 155.474C24.1734 155.787 24.0591 156.095 23.9276 156.395C22.9388 158.676 21.0323 160.914 21.0323 160.914C21.0323 160.914 20.8279 160.893 20.4887 160.834C19.7814 160.713 18.4853 160.426 17.233 159.82C16.684 159.56 16.1685 159.235 15.6979 158.85C15.293 158.522 14.9408 158.133 14.6538 157.698L14.6491 157.691C14.2071 157.006 13.9672 156.209 13.957 155.393C13.8491 150.577 14.7682 150.145 14.9837 147.007C15.1853 144.08 16.091 140.728 16.2129 140.292L16.2262 140.246C16.2262 140.246 16.3374 140.435 16.5312 140.759C17.0771 141.662 18.2846 143.61 19.5991 145.394C19.6016 145.397 19.6038 145.401 19.6056 145.405C19.8451 145.732 20.0892 146.052 20.3323 146.36C22.3861 148.957 23.7929 150.741 24.4389 153.446C24.45 153.492 24.4592 153.543 24.4689 153.592C24.5658 154.161 24.4772 154.807 24.27 155.474Z" fill="#B9C7C7"/>
<path d="M24.2704 155.474C24.1739 155.787 24.0595 156.095 23.9281 156.395C22.9393 158.676 21.0327 160.914 21.0327 160.914C21.0327 160.914 20.8283 160.893 20.4892 160.834C20.766 159.141 21.1047 156.717 21.2321 154.319C21.4258 150.666 17.4785 142.735 16.2119 140.293L16.2253 140.246C16.2253 140.246 16.3365 140.435 16.5303 140.76C17.0761 141.663 18.2836 143.611 19.5982 145.394C19.6007 145.398 19.6029 145.402 19.6047 145.406C19.8441 145.733 20.0882 146.052 20.3314 146.36C22.3851 148.957 23.792 150.742 24.4379 153.447C24.449 153.493 24.4582 153.544 24.4679 153.593C24.5662 154.161 24.4776 154.807 24.2704 155.474Z" fill="#558181"/>
<path d="M34.6678 167.359C30.0749 171.101 27.581 169.996 24.7013 167.586C24.6764 167.565 24.6515 167.543 24.6275 167.522C22.3421 165.512 22.4842 161.023 26.104 159.018C29.763 156.991 29.4063 159.138 33.6324 156.895C37.8584 154.652 38.9026 154.12 38.9026 154.12C38.9026 154.12 38.9026 154.173 38.9063 154.273C38.9289 155.508 38.9174 163.897 34.6678 167.359Z" fill="#B9C7C7"/>
<path d="M38.9073 154.272C35.9764 156.266 30.2904 160.058 27.5843 161.356C24.7853 162.699 24.5634 165.966 24.6285 167.522C22.3431 165.512 22.4852 161.023 26.105 159.017C29.764 156.991 29.4073 159.137 33.6333 156.894C37.8594 154.652 38.9036 154.119 38.9036 154.119C38.9036 154.119 38.9054 154.173 38.9073 154.272Z" fill="#558181"/>
<path d="M27.2718 158.193C25.6337 157.993 23.2247 154.107 24.8595 148.884C26.4943 143.66 32.0012 136.147 32.0012 136.147C32.0012 136.147 36.3809 148.26 35.1356 152.47C33.8902 156.679 32.0192 158.77 27.2718 158.193Z" fill="#B9C7C7"/>
<path d="M19.6853 166.548C17.8618 166.219 13.7331 165.566 9.60071 165.566C4.0947 165.566 0.208703 174.694 0.178711 174.765C0.178711 174.765 0.194399 174.364 0.275146 173.717C0.562604 171.429 1.66722 166.072 5.79684 164.594C11.014 162.729 17.6449 163.12 19.1828 165.253C19.2074 165.284 19.2302 165.317 19.2511 165.351C19.4786 165.715 19.6266 166.123 19.6853 166.548Z" fill="#558181"/>
<path d="M15.9846 173.049L21.7711 172.998C21.7711 172.998 19.7409 176.292 19.955 179.026C20.1363 181.338 21.5118 184.82 21.5118 184.82L17.3859 184.898C17.3859 184.898 14.9298 181.467 14.8167 178.818C14.6871 175.778 15.9846 173.049 15.9846 173.049Z" fill="#365F5F"/>
<path d="M33.5396 178.335C33.2461 182.69 31.3299 185.563 28.5836 187.03V188.185H18.7334V187.161C20.5947 187.25 24.6394 187.312 26.8644 186.341C29.0132 185.4 32.0825 181.936 33.5396 178.335Z" fill="#365F5F"/>
<path d="M192.156 163.768H146.793C146.793 163.768 147.548 165.387 147.632 168.903C147.716 172.418 146.818 174.498 146.818 174.498L192.156 175.011C193.645 175.011 195.072 174.418 196.125 173.364C197.178 172.31 197.77 170.88 197.77 169.389C197.77 167.898 197.178 166.468 196.125 165.414C195.072 164.36 193.645 163.768 192.156 163.768Z" fill="#478080"/>
<path d="M192.156 174.994H146.793C146.762 174.994 146.731 174.988 146.703 174.976C146.674 174.965 146.648 174.947 146.626 174.925C146.604 174.903 146.587 174.877 146.575 174.848C146.563 174.819 146.557 174.789 146.557 174.757C146.557 174.627 146.663 174.252 146.793 174.252H192.156C195.121 174.252 197.147 172.105 197.147 169.136C197.147 166.166 195.121 164.124 192.156 164.124H146.793C146.663 164.124 146.557 163.646 146.557 163.515C146.557 163.484 146.563 163.453 146.575 163.424C146.587 163.395 146.604 163.369 146.626 163.347C146.648 163.325 146.674 163.308 146.703 163.296C146.731 163.284 146.762 163.278 146.793 163.278H192.156C192.929 163.271 193.695 163.417 194.411 163.709C195.127 164 195.778 164.43 196.327 164.975C196.875 165.52 197.311 166.168 197.608 166.882C197.906 167.596 198.059 168.362 198.059 169.136C198.059 169.91 197.906 170.676 197.608 171.39C197.311 172.104 196.875 172.752 196.327 173.297C195.778 173.842 195.127 174.272 194.411 174.564C193.695 174.855 192.929 175.001 192.156 174.994Z" fill="#1E6686"/>
<path d="M193.645 167.348H157.249C157.23 167.349 157.21 167.346 157.192 167.339C157.174 167.333 157.157 167.323 157.143 167.309C157.129 167.296 157.118 167.28 157.11 167.262C157.103 167.244 157.099 167.225 157.099 167.206C157.099 167.186 157.103 167.167 157.11 167.149C157.118 167.132 157.129 167.116 157.143 167.102C157.157 167.089 157.174 167.079 157.192 167.072C157.21 167.065 157.23 167.063 157.249 167.064H193.645C193.681 167.066 193.715 167.082 193.74 167.108C193.765 167.134 193.779 167.169 193.779 167.206C193.779 167.242 193.765 167.277 193.74 167.303C193.715 167.33 193.681 167.346 193.645 167.348Z" fill="#E2DEDE"/>
<path d="M168.764 169.765H157.082C157.044 169.765 157.008 169.75 156.981 169.724C156.954 169.697 156.939 169.661 156.939 169.623C156.939 169.585 156.954 169.549 156.981 169.522C157.008 169.496 157.044 169.481 157.082 169.481H168.764C168.802 169.481 168.838 169.496 168.864 169.522C168.891 169.549 168.906 169.585 168.906 169.623C168.906 169.661 168.891 169.697 168.864 169.724C168.838 169.75 168.802 169.765 168.764 169.765Z" fill="#E2DEDE"/>
<path d="M179.716 169.765H175.785C175.747 169.765 175.711 169.75 175.684 169.724C175.658 169.697 175.643 169.661 175.643 169.623C175.643 169.585 175.658 169.549 175.684 169.522C175.711 169.496 175.747 169.481 175.785 169.481H179.716C179.754 169.481 179.79 169.496 179.816 169.522C179.843 169.549 179.858 169.585 179.858 169.623C179.858 169.661 179.843 169.697 179.816 169.724C179.79 169.75 179.754 169.765 179.716 169.765Z" fill="#E2DEDE"/>
<path d="M185.445 172.689H162.361C162.342 172.691 162.322 172.688 162.304 172.681C162.286 172.674 162.27 172.664 162.255 172.651C162.241 172.637 162.23 172.621 162.223 172.604C162.215 172.586 162.211 172.567 162.211 172.547C162.211 172.528 162.215 172.509 162.223 172.491C162.23 172.473 162.241 172.457 162.255 172.444C162.27 172.431 162.286 172.42 162.304 172.414C162.322 172.407 162.342 172.404 162.361 172.405H185.445C185.464 172.404 185.483 172.407 185.501 172.414C185.52 172.42 185.536 172.431 185.55 172.444C185.564 172.457 185.576 172.473 185.583 172.491C185.591 172.509 185.595 172.528 185.595 172.547C185.595 172.567 185.591 172.586 185.583 172.604C185.576 172.621 185.564 172.637 185.55 172.651C185.536 172.664 185.52 172.674 185.501 172.681C185.483 172.688 185.464 172.691 185.445 172.689Z" fill="#E2DEDE"/>
<path d="M152.407 186.653H197.77C197.77 186.653 197.014 185.033 196.93 181.517C196.845 178.002 197.744 175.922 197.744 175.922L152.407 175.409C150.918 175.409 149.49 176.002 148.437 177.056C147.384 178.11 146.793 179.54 146.793 181.031C146.793 181.769 146.938 182.5 147.22 183.182C147.502 183.864 147.916 184.484 148.437 185.006C148.959 185.528 149.577 185.942 150.259 186.225C150.94 186.507 151.67 186.653 152.407 186.653Z" fill="#478080"/>
<path d="M197.77 187.143H152.407C150.856 187.143 149.367 186.525 148.27 185.427C147.173 184.328 146.557 182.838 146.557 181.284C146.557 179.73 147.173 178.24 148.27 177.141C149.367 176.043 150.856 175.426 152.407 175.426H197.77C197.833 175.426 197.893 175.451 197.937 175.495C197.982 175.539 198.007 175.6 198.007 175.663C198.007 175.793 197.884 176.243 197.753 176.243H152.39C149.425 176.243 147.375 178.461 147.375 181.432C147.375 184.403 149.425 186.313 152.39 186.313H197.753C197.884 186.313 198.007 186.775 198.007 186.906C198.007 186.937 198.001 186.968 197.989 186.996C197.977 187.025 197.959 187.051 197.937 187.073C197.915 187.095 197.889 187.113 197.861 187.125C197.832 187.137 197.801 187.143 197.77 187.143Z" fill="#FA706E"/>
<path d="M188.927 179.298H152.532C152.513 179.299 152.493 179.296 152.475 179.289C152.457 179.283 152.44 179.272 152.426 179.259C152.412 179.246 152.401 179.23 152.393 179.212C152.386 179.194 152.382 179.175 152.382 179.156C152.382 179.136 152.386 179.117 152.393 179.099C152.401 179.082 152.412 179.066 152.426 179.052C152.44 179.039 152.457 179.029 152.475 179.022C152.493 179.015 152.513 179.013 152.532 179.014H188.927C188.963 179.016 188.997 179.032 189.022 179.058C189.047 179.084 189.061 179.119 189.061 179.156C189.061 179.192 189.047 179.227 189.022 179.253C188.997 179.28 188.963 179.296 188.927 179.298Z" fill="#E5E5E5"/>
<path d="M189.095 181.717H177.412C177.393 181.718 177.373 181.715 177.355 181.709C177.337 181.702 177.32 181.692 177.306 181.678C177.292 181.665 177.281 181.649 177.273 181.631C177.266 181.613 177.262 181.594 177.262 181.575C177.262 181.556 177.266 181.536 177.273 181.519C177.281 181.501 177.292 181.485 177.306 181.471C177.32 181.458 177.337 181.448 177.355 181.441C177.373 181.435 177.393 181.432 177.412 181.433H189.095C189.114 181.432 189.133 181.435 189.152 181.441C189.17 181.448 189.186 181.458 189.201 181.471C189.215 181.485 189.226 181.501 189.233 181.519C189.241 181.536 189.245 181.556 189.245 181.575C189.245 181.594 189.241 181.613 189.233 181.631C189.226 181.649 189.215 181.665 189.201 181.678C189.186 181.692 189.17 181.702 189.152 181.709C189.133 181.715 189.114 181.718 189.095 181.717Z" fill="#E5E5E5"/>
<path d="M170.392 181.717H166.46C166.424 181.715 166.39 181.699 166.365 181.673C166.34 181.646 166.326 181.611 166.326 181.575C166.326 181.539 166.34 181.504 166.365 181.477C166.39 181.451 166.424 181.435 166.46 181.433H170.392C170.411 181.432 170.431 181.435 170.449 181.441C170.467 181.448 170.483 181.458 170.498 181.471C170.512 181.485 170.523 181.501 170.53 181.519C170.538 181.536 170.542 181.556 170.542 181.575C170.542 181.594 170.538 181.613 170.53 181.631C170.523 181.649 170.512 181.665 170.498 181.678C170.483 181.692 170.467 181.702 170.449 181.709C170.431 181.715 170.411 181.718 170.392 181.717Z" fill="#E5E5E5"/>
<path d="M183.816 184.641H160.732C160.694 184.641 160.658 184.626 160.631 184.599C160.605 184.572 160.59 184.536 160.59 184.498C160.59 184.461 160.605 184.425 160.631 184.398C160.658 184.371 160.694 184.356 160.732 184.356H183.816C183.854 184.356 183.89 184.371 183.916 184.398C183.943 184.425 183.958 184.461 183.958 184.498C183.958 184.536 183.943 184.572 183.916 184.599C183.89 184.626 183.854 184.641 183.816 184.641Z" fill="#E5E5E5"/>
<path d="M152.407 162.358H197.77C197.77 162.358 197.014 160.741 196.93 157.223C196.845 153.706 197.744 151.627 197.744 151.627L152.407 151.115C150.918 151.115 149.491 151.707 148.438 152.761C147.385 153.815 146.793 155.244 146.793 156.735C146.793 157.473 146.938 158.205 147.22 158.887C147.502 159.569 147.915 160.189 148.437 160.711C148.958 161.233 149.577 161.647 150.258 161.93C150.939 162.213 151.67 162.358 152.407 162.358Z" fill="#478080"/>
<path d="M197.77 162.847H152.407C150.856 162.847 149.367 162.23 148.27 161.131C147.173 160.032 146.557 158.542 146.557 156.988C146.557 155.434 147.173 153.944 148.27 152.846C149.367 151.747 150.856 151.13 152.407 151.13H197.77C197.833 151.13 197.893 151.155 197.937 151.199C197.982 151.244 198.007 151.304 198.007 151.367C198.007 151.497 197.901 151.892 197.77 151.892H152.407C149.442 151.892 147.432 154.14 147.432 157.109C147.432 160.078 149.718 162.019 152.683 162.019H198.046C198.177 162.019 198.007 162.479 198.007 162.61C198.007 162.673 197.982 162.733 197.937 162.777C197.893 162.822 197.833 162.847 197.77 162.847Z" fill="#FDC975"/>
<path d="M156.915 165.208L159.611 160.688L162.245 165.208V157.109H156.915V165.208Z" fill="#F77979"/>
<path d="M193.757 153.596H157.362C157.343 153.597 157.323 153.594 157.305 153.588C157.287 153.581 157.271 153.571 157.256 153.557C157.242 153.544 157.231 153.528 157.224 153.51C157.216 153.492 157.212 153.473 157.212 153.454C157.212 153.434 157.216 153.415 157.224 153.398C157.231 153.38 157.242 153.364 157.256 153.35C157.271 153.337 157.287 153.327 157.305 153.32C157.323 153.314 157.343 153.311 157.362 153.312H193.757C193.776 153.311 193.795 153.314 193.814 153.32C193.832 153.327 193.848 153.337 193.862 153.35C193.877 153.364 193.888 153.38 193.895 153.398C193.903 153.415 193.907 153.434 193.907 153.454C193.907 153.473 193.903 153.492 193.895 153.51C193.888 153.528 193.877 153.544 193.862 153.557C193.848 153.571 193.832 153.581 193.814 153.588C193.795 153.594 193.776 153.597 193.757 153.596Z" fill="#E2E0E0"/>
<path d="M193.925 156.014H182.243C182.224 156.015 182.204 156.012 182.186 156.006C182.168 155.999 182.151 155.989 182.137 155.976C182.123 155.962 182.112 155.946 182.104 155.928C182.097 155.911 182.093 155.892 182.093 155.872C182.093 155.853 182.097 155.834 182.104 155.816C182.112 155.798 182.123 155.782 182.137 155.769C182.151 155.755 182.168 155.745 182.186 155.738C182.204 155.732 182.224 155.729 182.243 155.73H193.925C193.944 155.729 193.964 155.732 193.982 155.738C194 155.745 194.017 155.755 194.031 155.769C194.045 155.782 194.056 155.798 194.064 155.816C194.071 155.834 194.075 155.853 194.075 155.872C194.075 155.892 194.071 155.911 194.064 155.928C194.056 155.946 194.045 155.962 194.031 155.976C194.017 155.989 194 155.999 193.982 156.006C193.964 156.012 193.944 156.015 193.925 156.014Z" fill="#E2E0E0"/>
<path d="M175.222 156.014H171.291C171.272 156.015 171.252 156.012 171.234 156.006C171.216 155.999 171.199 155.989 171.185 155.976C171.171 155.962 171.16 155.946 171.152 155.928C171.145 155.911 171.141 155.892 171.141 155.872C171.141 155.853 171.145 155.834 171.152 155.816C171.16 155.798 171.171 155.782 171.185 155.769C171.199 155.755 171.216 155.745 171.234 155.738C171.252 155.732 171.272 155.729 171.291 155.73H175.222C175.241 155.729 175.261 155.732 175.279 155.738C175.297 155.745 175.314 155.755 175.328 155.769C175.342 155.782 175.353 155.798 175.361 155.816C175.368 155.834 175.372 155.853 175.372 155.872C175.372 155.892 175.368 155.911 175.361 155.928C175.353 155.946 175.342 155.962 175.328 155.976C175.314 155.989 175.297 155.999 175.279 156.006C175.261 156.012 175.241 156.015 175.222 156.014Z" fill="#E2E0E0"/>
<path d="M188.645 158.939H165.562C165.524 158.939 165.488 158.924 165.462 158.897C165.435 158.871 165.42 158.834 165.42 158.797C165.42 158.759 165.435 158.723 165.462 158.696C165.488 158.669 165.524 158.654 165.562 158.654H188.645C188.683 158.654 188.719 158.669 188.746 158.696C188.773 158.723 188.788 158.759 188.788 158.797C188.788 158.834 188.773 158.871 188.746 158.897C188.719 158.924 188.683 158.939 188.645 158.939Z" fill="#E2E0E0"/>
<path d="M153.372 27.2969L153.39 27.2664C153.584 26.9275 153.636 26.5252 153.534 26.148C153.433 25.7707 153.185 25.4494 152.847 25.2547L152.49 25.0491C152.152 24.8549 151.75 24.8031 151.373 24.905C150.997 25.007 150.676 25.2543 150.481 25.5929L150.463 25.6234C150.269 25.9624 150.218 26.3645 150.32 26.7416C150.421 27.1187 150.668 27.44 151.006 27.6351L151.363 27.8407C151.702 28.0351 152.104 28.0871 152.48 27.9851C152.857 27.8831 153.178 27.6356 153.372 27.2969ZM152.409 25.1909L152.766 25.3961C152.915 25.4818 153.045 25.5961 153.15 25.7324C153.255 25.8687 153.332 26.0244 153.377 26.1905C153.422 26.3566 153.434 26.5299 153.411 26.7006C153.389 26.8712 153.334 27.0359 153.248 27.1851L153.231 27.2156C153.058 27.5166 152.772 27.7365 152.438 27.8271C152.103 27.9178 151.746 27.8716 151.445 27.6989L151.088 27.4937C150.787 27.3205 150.567 27.0348 150.476 26.6994C150.386 26.364 150.432 26.0062 150.604 25.7047L150.622 25.6742C150.795 25.3732 151.08 25.1533 151.415 25.0627C151.75 24.972 152.107 25.0182 152.408 25.1909H152.409ZM154.524 25.0916C154.655 24.8909 154.827 24.7196 155.028 24.5885C155.263 24.4438 155.714 24.3209 156.366 24.2235C157.325 24.0848 158.027 23.8903 158.454 23.6505C158.865 23.4252 159.207 23.0916 159.442 22.6858C159.988 21.7349 160.003 20.718 159.488 19.6646C159.112 18.8902 158.416 18.2069 157.418 17.6316C156.136 16.8924 154.993 16.6429 154.023 16.8864C153.752 16.9536 153.489 17.0498 153.238 17.1733C152.999 17.2917 152.794 17.4695 152.644 17.6896C152.493 17.9097 152.4 18.1648 152.376 18.4307C152.351 18.6966 152.395 18.9643 152.503 19.2085C152.611 19.4526 152.78 19.665 152.993 19.8254L153.023 19.848C153.283 20.0423 153.597 20.1511 153.922 20.1594C154.246 20.1676 154.566 20.075 154.836 19.8942C154.933 19.8271 155.041 19.776 155.154 19.7427C155.469 19.6558 155.77 19.6965 156.075 19.8743C156.354 20.0351 156.527 20.2186 156.588 20.4205C156.649 20.6224 156.615 20.8363 156.482 21.0673C156.35 21.2983 156.027 21.4508 155.516 21.5349C154.501 21.71 153.816 21.8583 153.486 21.9715C153.156 22.0847 152.85 22.2579 152.583 22.4825C152.32 22.7048 152.056 23.0439 151.798 23.4907C151.748 23.5779 151.735 23.6815 151.761 23.7787C151.787 23.8759 151.85 23.9588 151.937 24.0095L154.013 25.2048C154.095 25.2525 154.193 25.2674 154.286 25.2464C154.378 25.2254 154.46 25.1701 154.514 25.0916H154.524ZM152.026 23.8677C151.976 23.8391 151.94 23.7918 151.925 23.7364C151.91 23.6809 151.918 23.6218 151.946 23.572C152.193 23.1418 152.444 22.8175 152.693 22.6073C152.945 22.3957 153.233 22.2325 153.544 22.1258C153.867 22.014 154.54 21.8694 155.548 21.6957C156.117 21.6033 156.47 21.4235 156.628 21.1486C156.786 20.8737 156.823 20.6201 156.749 20.3752C156.674 20.1303 156.477 19.9169 156.161 19.7353C155.821 19.5398 155.469 19.4899 155.116 19.5874C154.985 19.6255 154.862 19.684 154.75 19.7607C154.508 19.9226 154.222 20.0057 153.931 19.9985C153.64 19.9913 153.359 19.8942 153.125 19.7205L153.095 19.6978C152.904 19.5542 152.753 19.3639 152.657 19.1452C152.56 18.9266 152.521 18.6868 152.543 18.4487C152.565 18.2105 152.647 17.982 152.783 17.7849C152.918 17.5878 153.101 17.4286 153.315 17.3225C153.555 17.2048 153.806 17.1131 154.065 17.049C154.993 16.818 156.095 17.0615 157.341 17.7772C158.31 18.3349 158.985 18.9946 159.346 19.739C159.836 20.7411 159.822 21.7063 159.305 22.6073C159.083 22.9873 158.762 23.2993 158.376 23.5096C157.967 23.7406 157.284 23.9254 156.345 24.064C155.662 24.1666 155.204 24.2951 154.946 24.4512C154.726 24.5944 154.537 24.7814 154.392 25.0006C154.361 25.0455 154.315 25.0772 154.262 25.0892C154.209 25.1012 154.153 25.0926 154.106 25.0653L152.026 23.8677Z" fill="#F4D5CC"/>
<path d="M17.925 24.7705L17.9024 24.7432C17.7789 24.5944 17.6273 24.4714 17.4563 24.3812C17.2853 24.2911 17.0982 24.2356 16.9058 24.2178C16.7134 24.2001 16.5193 24.2205 16.3348 24.2779C16.1502 24.3353 15.9788 24.4286 15.8302 24.5524L15.5137 24.8157C15.2142 25.0659 15.0259 25.4247 14.9902 25.8136C14.9545 26.2024 15.0742 26.5896 15.3231 26.8903L15.3457 26.9175C15.5955 27.2176 15.954 27.4061 16.3424 27.4419C16.7309 27.4777 17.1177 27.3577 17.4179 27.1083L17.7345 26.845C18.0343 26.595 18.2228 26.236 18.2585 25.847C18.2943 25.4579 18.1743 25.0706 17.925 24.77V24.7705ZM15.618 24.9414L15.9345 24.6776C16.2014 24.4555 16.5455 24.3487 16.8911 24.3806C17.2367 24.4125 17.5554 24.5804 17.7774 24.8476L17.7995 24.8749C18.0211 25.1421 18.1277 25.4865 18.0959 25.8324C18.0642 26.1783 17.8967 26.4974 17.6302 26.7198L17.3136 26.9831C17.0466 27.2049 16.7027 27.3116 16.3572 27.2798C16.0117 27.248 15.693 27.0803 15.4708 26.8136L15.4486 26.7863C15.2268 26.5191 15.1201 26.1747 15.1518 25.8287C15.1836 25.4828 15.3513 25.1636 15.618 24.9414ZM16.2616 22.9219C16.12 22.7287 16.0193 22.5086 15.9659 22.275C15.9128 22.0033 15.9548 21.5358 16.0904 20.8917C16.2935 19.9422 16.3576 19.2159 16.2815 18.7326C16.215 18.267 16.0224 17.8285 15.7246 17.4648C15.0241 16.6211 14.0782 16.2529 12.9099 16.3689C12.0568 16.453 11.1741 16.8688 10.2896 17.6057C9.15269 18.5524 8.52009 19.5375 8.40982 20.5332C8.379 20.8095 8.37777 21.0883 8.40612 21.3648C8.43329 21.6309 8.52816 21.8855 8.68167 22.1044C8.83517 22.3232 9.04217 22.499 9.28289 22.6149C9.5236 22.7308 9.78998 22.7829 10.0565 22.7663C10.3231 22.7496 10.581 22.6648 10.8055 22.5199L10.8373 22.4996C11.1097 22.3225 11.3207 22.0655 11.4413 21.7636C11.562 21.4618 11.5865 21.1299 11.5114 20.8136C11.4827 20.6986 11.4723 20.5798 11.4805 20.4615C11.5086 20.1381 11.654 19.8688 11.9244 19.6437C12.1717 19.4377 12.4038 19.3397 12.6142 19.3522C12.8246 19.3647 13.0105 19.471 13.1808 19.6756C13.3511 19.8803 13.381 20.237 13.2791 20.7452C13.089 21.7617 12.9888 22.4524 12.981 22.8027C12.9722 23.1517 13.0277 23.4994 13.1448 23.8284C13.2615 24.1518 13.4872 24.5182 13.8162 24.9141C13.8802 24.9917 13.9724 25.0407 14.0725 25.0503C14.1726 25.0599 14.2724 25.0294 14.35 24.9654L16.1924 23.431C16.2656 23.3705 16.3133 23.2846 16.3261 23.1904C16.3388 23.0962 16.3156 23.0006 16.2612 22.9228L16.2616 22.9219ZM14.2462 24.8398C14.202 24.8764 14.1451 24.8941 14.0879 24.8888C14.0307 24.8835 13.978 24.8557 13.9412 24.8116C13.6247 24.4304 13.4083 24.0816 13.2985 23.7748C13.1879 23.4649 13.1356 23.1372 13.1443 22.8082C13.1517 22.4668 13.2509 21.7839 13.4392 20.778C13.5499 20.2107 13.5056 19.8166 13.3035 19.5731C13.1014 19.3296 12.8763 19.2062 12.6211 19.1905C12.3659 19.1748 12.0979 19.2861 11.8173 19.5195C11.516 19.7703 11.3472 20.0831 11.3153 20.4491C11.3056 20.5845 11.3172 20.7206 11.3499 20.8524C11.4173 21.1357 11.3954 21.4329 11.2874 21.7032C11.1793 21.9736 10.9903 22.2038 10.7464 22.3623L10.7146 22.3831C10.5136 22.5123 10.2829 22.5877 10.0446 22.6024C9.80622 22.617 9.5681 22.5703 9.35288 22.4666C9.13766 22.363 8.95251 22.206 8.81505 22.0104C8.6776 21.8149 8.59242 21.5874 8.56762 21.3496C8.54047 21.0838 8.54171 20.8158 8.57131 20.5503C8.67697 19.598 9.28972 18.649 10.3934 17.7319C11.253 17.0166 12.1057 16.6133 12.9284 16.5329C14.0358 16.4225 14.9355 16.7713 15.599 17.5706C15.8778 17.9116 16.0581 18.3223 16.1204 18.7585C16.1933 19.2205 16.1297 19.9284 15.9308 20.8584C15.7887 21.5358 15.7462 22.0094 15.8062 22.3069C15.8638 22.5634 15.9738 22.8052 16.1292 23.017C16.1605 23.0616 16.1738 23.1163 16.1665 23.1703C16.1593 23.2242 16.1319 23.2735 16.09 23.3081L14.2462 24.8398Z" fill="#F4D5CC"/>
<path d="M190.615 9.83523L192.521 10.7653L192.099 8.68616L193.571 7.15868L191.465 6.9175L190.47 5.04211L189.59 6.97341L187.502 7.34303L189.064 8.77856L188.77 10.8808L190.615 9.83523ZM189.702 7.11941L190.481 5.40989L191.362 7.06905L193.225 7.28251L191.922 8.63349L192.295 10.4738L190.608 9.65088L188.976 10.5749L189.236 8.71527L187.852 7.44607L189.702 7.11941Z" fill="#F4D5CC"/>
<path d="M7.49348 4.79265L9.3991 5.72319L8.97737 3.64404L10.4497 2.11657L8.3434 1.87539L7.34767 0L6.46776 1.93129L4.37988 2.30092L5.94268 3.73506L5.64784 5.83731L7.49348 4.79265ZM6.58035 2.07914L7.35921 0.369625L8.23958 2.02739L10.1046 2.23993L8.80019 3.59091L9.17347 5.43118L7.48794 4.6083L5.85501 5.53237L6.11571 3.67269L4.73378 2.40256L6.58035 2.07914Z" fill="#F4D5CC"/>
<path d="M37.6781 27.5713L39.5837 28.5014L39.1619 26.4222L40.6343 24.8952L38.528 24.6522L37.5322 22.7782L36.6523 24.7095L34.5645 25.0791L36.1286 26.5133L35.8338 28.6155L37.6781 27.5713ZM36.7649 24.8573L37.5438 23.1478L38.4242 24.8056L40.2873 25.0191L38.9848 26.3691L39.3585 28.2094L37.673 27.3865L36.04 28.3106L36.3007 26.4509L34.9165 25.1817L36.7649 24.8573Z" fill="#F4D5CC"/>
<path d="M132.296 4.82451L134.202 5.75505L133.78 3.6759L135.253 2.14889L133.146 1.90725L132.151 0.0318604L131.271 1.96315L129.184 2.33278L130.746 3.76739L130.451 5.86963L132.296 4.82451ZM131.384 2.10915L132.162 0.399637L133.042 2.05741L134.906 2.27087L133.603 3.62185L133.976 5.46212L132.291 4.63924L130.658 5.5633L130.919 3.70363L129.535 2.43442L131.384 2.10915Z" fill="#F4D5CC"/>
</g>
<defs>
<clipPath id="clip0_1747_20631">
<rect width="207.188" height="195" fill="white"/>
</clipPath>
</defs>
</svg>
