<svg width="89" height="89" viewBox="0 0 89 89" fill="none" xmlns="http://www.w3.org/2000/svg">
<path d="M54.1959 24.6188H68.6451C69.7285 24.6188 70.6095 23.7946 70.6095 22.7811C70.6095 21.7677 69.7285 20.9433 68.6451 20.9433H54.1959C53.1125 20.9433 52.2315 21.7677 52.2315 22.7811C52.2315 23.7946 53.1125 24.6188 54.1959 24.6188ZM54.1959 35.6456H68.6451C69.7285 35.6456 70.6095 34.8208 70.6095 33.8078C70.6095 32.7939 69.7285 31.9701 68.6451 31.9701H54.1959C53.1125 31.9701 52.2315 32.794 52.2315 33.8078C52.2315 34.8209 53.1125 35.6456 54.1959 35.6456ZM75.9653 42.9969H54.2268C53.1265 42.9969 52.2315 43.8211 52.2315 44.8348C52.2315 45.8482 53.1264 46.6725 54.2268 46.6725H75.9653C77.0658 46.6725 77.9606 45.8483 77.9606 44.8348C77.9606 43.8211 77.0658 42.9969 75.9653 42.9969ZM41.7049 42.5749C39.4406 40.1326 36.5464 38.3538 33.336 37.4296L33.0653 37.3521L33.3134 37.2181C36.7835 35.3526 38.9392 31.7799 38.9392 27.8934C38.9392 22.0376 34.1935 17.274 28.3599 17.274C22.525 17.274 17.7779 22.0376 17.7779 27.8934C17.7779 31.7786 19.9327 35.351 23.4023 37.2165L23.6506 37.3506L23.3801 37.429C20.1784 38.3499 17.2898 40.1215 15.0259 42.5537C12.7155 45.0358 11.1579 48.1062 10.5223 51.4317C10.4243 51.9393 10.5295 52.4537 10.8183 52.8819C11.1074 53.3095 11.548 53.5994 12.0538 53.6975C12.1814 53.7235 12.3102 53.7372 12.4378 53.7372C13.347 53.7372 14.134 53.0741 14.3098 52.1596C15.5964 45.4217 21.5033 40.5317 28.3548 40.5317C35.2281 40.5317 41.1382 45.443 42.4075 52.2098C42.5784 53.1226 43.3745 53.7851 44.2997 53.7851C44.4272 53.7851 44.5453 53.7746 44.6599 53.7524C45.7046 53.5538 46.3942 52.5396 46.1969 51.492C45.57 48.1505 44.0166 45.0671 41.7049 42.5749ZM28.3599 21.1426C32.0677 21.1426 35.0839 24.1709 35.0839 27.8934C35.0839 31.6151 32.0677 34.6436 28.3599 34.6436C24.6511 34.6436 21.6333 31.615 21.6333 27.8934C21.6333 24.1708 24.6511 21.1426 28.3599 21.1426Z" fill="white"/>
<path d="M85.3117 74.2393H52.2314C51.053 74.2393 50.3938 73.4167 50.3938 72.4017C50.3938 71.3863 51.0529 70.5637 52.2314 70.5637H85.3117C86.4896 70.5637 87.1495 71.3863 87.1495 72.4017C87.1495 73.4167 86.5024 74.2393 85.3117 74.2393ZM46.7182 88.9417H6.28646C2.68159 88.9417 0.773071 87.0446 0.773071 83.4283V8.07869C0.773071 4.46191 4.51945 0.727539 8.12442 0.727539H83.4741C87.0788 0.727539 88.9873 2.62414 88.9873 6.24093V55.8614C88.9873 57.0565 87.7778 59.1075 86.5867 59.1075C85.3958 59.1075 83.4741 57.0565 83.4741 55.8614V8.07869C83.4741 6.84884 82.8619 6.24093 81.6361 6.24093H8.12452C6.89871 6.24093 6.28656 6.84884 6.28656 8.07869V81.5905C6.28656 82.8203 6.89871 83.4282 8.12452 83.4282H48.5558C49.7463 83.4282 50.7889 85.5828 50.7889 86.7773C50.7889 87.9735 49.8224 88.9416 48.6319 88.9416L46.7182 88.9417ZM71.1509 88.9417C70.5968 88.9417 70.0416 88.744 69.6188 88.3491C68.7718 87.5588 68.7718 86.2794 69.6188 85.4897L83.5692 72.9557L69.6188 59.5107C68.7718 58.7214 68.7718 57.4404 69.6188 56.6507C70.4655 55.8614 71.837 55.8614 72.6843 56.6507L88.1408 71.0702C88.9875 71.8592 88.9875 73.1405 88.1408 73.9298L72.6842 88.3491C72.2606 88.744 71.706 88.9417 71.1509 88.9417Z" fill="white"/>
</svg>
