<svg width="84" height="88" viewBox="0 0 84 88" fill="none" xmlns="http://www.w3.org/2000/svg">
<path d="M50.6982 22.6307H64.411C65.4406 22.6307 66.2746 21.8505 66.2746 20.8901C66.2746 19.9296 65.4387 19.1532 64.411 19.1532H50.6982C49.6686 19.1532 48.8346 19.9343 48.8346 20.8938C48.8346 21.8533 49.6704 22.6344 50.6982 22.6344V22.6307ZM50.6982 33.0762H64.411C65.4406 33.0762 66.2746 32.2951 66.2746 31.3356C66.2746 30.376 65.4387 29.595 64.411 29.595H50.6982C49.6686 29.595 48.8346 30.3751 48.8346 31.3356C48.8346 32.296 49.6704 33.0743 50.6982 33.0743V33.0762ZM71.3572 40.0395H50.7328C49.6882 40.0395 48.8392 40.8206 48.8392 41.781C48.8392 42.7415 49.6882 43.5217 50.7328 43.5217H71.3572C72.4018 43.5217 73.2508 42.7406 73.2508 41.781C73.2508 40.8215 72.4018 40.0395 71.3572 40.0395ZM38.8453 39.6396C36.6917 37.3238 33.9456 35.6388 30.9031 34.7663L30.6466 34.6925L30.8816 34.5654C34.1755 32.7987 36.2169 29.4146 36.2169 25.7326C36.2169 20.1856 31.7137 15.6739 26.1771 15.6739C20.6405 15.6739 16.1373 20.1856 16.1373 25.7326C16.1373 29.4137 18.1825 32.7968 21.4727 34.5645L21.7085 34.6916L21.4511 34.7654C18.4158 35.637 15.6753 37.3165 13.523 39.6237C11.3336 41.9691 9.85215 44.8838 9.24909 48.0325C9.20275 48.2689 9.20362 48.5121 9.25164 48.7481C9.29967 48.9842 9.39391 49.2085 9.52896 49.4081C9.664 49.6078 9.83721 49.7789 10.0386 49.9115C10.2401 50.0442 10.4657 50.1359 10.7027 50.1814C10.8225 50.2063 10.9445 50.2188 11.0669 50.2187C11.4912 50.2147 11.9008 50.0633 12.2254 49.7905C12.55 49.5177 12.7692 49.1405 12.8453 48.7238C13.4352 45.622 15.0925 42.8234 17.5306 40.812C19.9687 38.8006 23.0343 37.7028 26.1974 37.7085C29.3605 37.7141 32.4221 38.8229 34.853 40.843C37.2838 42.8631 38.9311 45.6676 39.5099 48.7715C39.6002 49.2475 39.8763 49.6682 40.2775 49.941C40.6786 50.2138 41.1718 50.3164 41.6487 50.2262C42.1256 50.136 42.547 49.8604 42.8204 49.46C43.0937 49.0597 43.1964 48.5673 43.1061 48.0913C42.515 44.9286 41.0376 41.9981 38.8453 39.6396ZM26.1799 19.3401C27.4479 19.3356 28.6887 19.7069 29.7451 20.4068C30.8015 21.1067 31.6261 22.1038 32.1144 23.2718C32.6028 24.4398 32.7328 25.7262 32.4882 26.9681C32.2435 28.21 31.6352 29.3514 30.7402 30.2479C29.8452 31.1444 28.7037 31.7557 27.4605 32.0042C26.2172 32.2528 24.928 32.1275 23.7561 31.6442C22.5842 31.1608 21.5824 30.3413 20.8774 29.2893C20.1725 28.2372 19.7962 27.0001 19.7962 25.7344C19.7947 24.042 20.4661 22.4181 21.663 21.2192C22.8598 20.0203 24.4843 19.3445 26.1799 19.3401Z" fill="white"/>
<path d="M43.602 83.5611H5.23239C1.81121 83.5611 0 81.7645 0 78.3384V6.96335C0 3.53727 3.5569 0 6.9762 0H78.483C81.9041 0 83.7154 1.79666 83.7154 5.22275V52.2275C83.7154 53.3598 82.5678 55.3022 81.4371 55.3022C80.3064 55.3022 78.483 53.358 78.483 52.2275V6.96335C78.483 5.79828 77.9026 5.22275 76.7392 5.22275H6.9762C5.81366 5.22275 5.23239 5.79828 5.23239 6.96335V76.5978C5.23239 77.7629 5.81366 78.3384 6.9762 78.3384H45.3458C46.4756 78.3384 47.4649 80.3798 47.4649 81.5103C47.466 81.7796 47.4139 82.0463 47.3116 82.2954C47.2093 82.5445 47.0587 82.771 46.8686 82.9619C46.6784 83.1529 46.4524 83.3045 46.2035 83.4081C45.9545 83.5117 45.6876 83.5653 45.4179 83.5658L43.602 83.5611Z" fill="white"/>
<path d="M62.9497 78.2468C62.7099 78.2471 62.4723 78.2 62.2508 78.1083C62.0293 78.0166 61.8281 77.882 61.6589 77.7124L57.3214 73.3838C56.979 73.0417 56.7868 72.5779 56.7871 72.0944C56.7874 71.6109 56.9801 71.1473 57.3228 70.8056C57.6655 70.4639 58.1301 70.2721 58.6145 70.2723C59.0989 70.2726 59.5634 70.4649 59.9057 70.807L62.9721 73.8678L72.6675 64.4864C73.0168 64.1595 73.4808 63.9827 73.9595 63.9942C74.4382 64.0056 74.8933 64.2043 75.2265 64.5475C75.5598 64.8907 75.7446 65.3509 75.7411 65.8288C75.7376 66.3067 75.5461 66.7642 75.2079 67.1025L64.2199 77.7339C63.8797 78.0636 63.4239 78.2477 62.9497 78.2468Z" fill="white"/>
<path d="M66.271 88C56.9407 88 49.3495 80.4228 49.3495 71.1097C49.3495 61.7965 56.9444 54.2194 66.271 54.2194C75.5975 54.2194 83.1924 61.7965 83.1924 71.1097C83.1924 80.4228 75.606 88 66.271 88ZM66.271 57.8631C58.9541 57.8631 53 63.8053 53 71.1097C53 78.414 58.9578 84.3562 66.271 84.3562C73.5841 84.3562 79.5419 78.414 79.5419 71.1097C79.5419 63.8053 73.5926 57.8631 66.271 57.8631Z" fill="white"/>
</svg>
