<svg width="109" height="104" viewBox="0 0 109 104" fill="none" xmlns="http://www.w3.org/2000/svg">
<path d="M104.422 95.5347C99.9493 95.2195 95.7268 94.9266 91.5066 94.6248C81.522 93.9093 71.524 93.3168 61.5552 92.4292C53.997 91.7585 46.5154 92.4874 39.0112 93.0038C28.9502 93.6947 18.8914 94.4392 8.83255 95.1591L3.71423 95.5168C3.74859 95.2395 3.80123 94.9646 3.87179 94.6941C4.7541 92.0849 6.04831 89.715 7.96599 87.7005C9.59332 85.9924 11.457 85.0422 13.9396 84.8544C23.8071 84.1031 33.6588 83.1529 43.5173 82.2765C45.4598 82.1043 47.4 81.8718 49.3446 81.7891C51.0733 81.7176 52.6961 82.1066 53.9768 83.5017C55.5523 81.8852 57.5556 81.6505 59.7208 81.8472C69.4668 82.7311 79.2135 83.5993 88.9609 84.4519C91.313 84.6599 93.6673 84.8678 96.0172 85.0981C96.3877 85.1259 96.7482 85.2311 97.0751 85.4066C100.958 87.6692 103.019 91.2375 104.422 95.5347Z" fill="white"/>
<path d="M53.1732 12.2561C59.2504 12.2561 65.3275 12.2717 71.4047 12.2382C72.1587 12.2382 72.5526 12.4618 72.8654 13.1325C74.6301 16.8215 74.8912 20.7342 74.5625 24.7116C74.5018 25.4651 74.6256 25.9033 75.3031 26.3438C76.2164 26.9088 76.9706 27.6948 77.4949 28.6282C78.0192 29.5615 78.2966 30.6118 78.3011 31.6806C78.3461 33.1696 78.3551 34.6587 78.3551 36.1522C78.3551 39.6177 76.6153 41.9965 73.597 43.5303C72.9217 43.8724 72.6066 44.2659 72.5481 45.0372C72.4467 46.0677 72.2722 47.0897 72.0259 48.0958C71.0558 52.4533 68.7487 55.8718 64.8459 58.1904C61.2738 60.3144 57.6163 62.1008 53.2925 62.0605C43.6028 61.9666 35.3829 54.6086 34.4308 45.0685C34.3566 44.3352 34.136 43.8724 33.4225 43.5258C30.1881 41.9496 28.5292 39.3628 28.581 35.7453C28.6013 34.368 28.581 32.9885 28.653 31.6135C28.6812 30.5256 28.9846 29.4621 29.5353 28.5212C30.086 27.5804 30.8662 26.7923 31.8042 26.2298C32.3849 25.8608 32.4389 25.5434 32.3151 24.8883C32.09 23.6921 31.8807 22.4289 32.0292 21.2439C32.3421 18.7376 32.898 16.2648 33.3414 13.7742C33.5373 12.6719 34.0347 12.2091 35.2996 12.227C41.262 12.3097 47.2289 12.2628 53.189 12.2628L53.1732 12.2561ZM31.264 34.0818C31.1109 38.7166 32.0765 40.3823 35.8128 41.735C36.6726 42.048 36.9225 42.4325 36.9112 43.3179C36.7829 54.5214 47.0173 59.5207 54.2896 59.3843C58.1452 59.3105 61.3481 57.3206 64.461 55.2704C66.534 53.9044 68.042 52.0352 68.7375 49.681C69.3251 47.6495 69.7399 45.5726 69.9777 43.4722C70.0947 42.4974 70.2635 42.0167 71.2719 41.6679C74.2249 40.6528 75.9243 38.6384 75.787 35.3764C75.7307 34.0349 75.742 32.6934 75.6227 31.3519C75.4899 29.8517 74.5828 28.83 73.2728 28.1659C72.9732 28.0305 72.6347 28.0059 72.3185 28.0966C69.7909 28.8814 67.2137 28.8277 64.6275 28.5975C59.1468 28.1056 53.853 26.7462 48.6131 25.1588C47.8186 24.9173 47.2626 25.009 46.5671 25.4942C43.2359 27.8127 39.6279 28.9731 35.5382 27.7903C35.2163 27.7147 34.8803 27.7208 34.5614 27.8082C33.6533 28.0144 32.8389 28.512 32.244 29.2241C31.6492 29.9362 31.3072 30.8231 31.2707 31.7477C31.2212 32.5146 31.264 33.2993 31.264 34.0818Z" fill="white"/>
<path d="M87.9594 82.0328C86.3343 81.9031 84.8083 81.7913 83.2957 81.6572C75.3054 80.9462 67.3151 80.1726 59.327 79.5645C57.8145 79.4505 56.2524 79.9826 54.7129 80.2173C54.3617 80.271 53.9273 80.4856 53.6685 80.356C50.9675 79.0145 48.1653 79.569 45.3788 79.8127C36.7177 80.5699 28.0574 81.3352 19.3978 82.1088C19.2722 82.0908 19.1486 82.0609 19.0287 82.0194C19.0602 79.2604 18.5786 76.4299 20.1114 73.8163C20.658 72.8566 21.3954 72.0175 22.2788 71.3498C23.1622 70.6822 24.173 70.2001 25.2499 69.9327C30.3547 68.5912 35.4618 67.2498 40.5553 65.8837C41.1743 65.716 41.5322 65.754 41.9486 66.3309C43.0515 67.8266 44.6338 68.7097 46.3782 69.2374C51.0599 70.7066 56.0861 70.691 60.7585 69.1927C62.5418 68.6776 64.1198 67.6244 65.2736 66.1788C65.3878 66.0589 65.5288 65.9675 65.6852 65.9119C65.8417 65.8564 66.0091 65.8383 66.1739 65.8591C71.5758 67.2565 76.9777 68.6203 82.3527 70.1451C85.5758 71.0573 87.7816 74.0041 87.9459 77.3578C88.0247 78.8736 87.9594 80.394 87.9594 82.0328Z" fill="white"/>
<path d="M45.6218 94.9512C48.0977 94.7947 48.4375 95.0898 48.998 97.187C49.1771 97.6666 49.5271 98.0644 49.9816 98.3049C52.6825 99.7604 55.4443 99.7403 58.1317 98.2468C58.5976 97.9589 58.9429 97.5134 59.1041 96.9925C59.5542 95.3872 60.2295 94.7858 61.8973 94.911C66.0838 95.227 70.2703 95.5593 74.4568 95.9081C84.2102 96.7115 93.9637 97.5179 103.717 98.3273C104.392 98.3831 105.068 98.4502 105.743 98.5106C107.168 98.638 108.081 99.6016 108.016 100.907C107.949 102.249 106.855 103.181 105.403 103.074C102.673 102.87 99.9448 102.638 97.2168 102.414L68.4989 100.064C67.0404 99.9437 65.5729 99.8409 64.1301 99.6777C63.4774 99.6061 63.052 99.7246 62.6311 100.315C61.0938 102.468 58.7642 103.28 56.2861 103.76C52.8334 104.431 49.671 103.675 46.763 101.759C46.529 101.637 46.3277 101.462 46.1755 101.247C45.2752 99.5346 43.8324 99.6687 42.1938 99.8118C30.762 100.811 19.3235 101.728 7.88943 102.667C6.13156 102.812 4.37594 102.962 2.61806 103.083C1.21131 103.181 0.142186 102.316 0.0116394 101.026C-0.116656 99.6978 0.815174 98.647 2.2917 98.5218C9.20465 97.936 16.1176 97.3584 23.0305 96.789C30.654 96.163 38.2774 95.5482 45.6218 94.9512Z" fill="white"/>
<path d="M34.4601 9.98675C39.5424 3.04462 46.1417 -0.349309 54.5304 0.0285393C61.8388 0.354965 67.45 3.72206 71.5532 9.98675H34.4601Z" fill="white"/>
<path d="M50.3012 33.5095C52.4034 32.0495 54.3954 32.329 56.3559 33.6973C57.2764 31.5465 58.7439 30.2341 61.0555 30.12C62.3436 30.0555 63.6078 30.4826 64.5891 31.314C65.5704 32.1453 66.1945 33.318 66.3336 34.5916C66.4835 35.8654 66.1397 37.1482 65.372 38.1793C64.6043 39.2105 63.4703 39.9127 62.2003 40.1435C60.9303 40.3743 59.6194 40.1163 58.5339 39.422C57.4485 38.7276 56.6697 37.6489 56.3559 36.4048C55.7571 34.1534 52.9797 33.2278 51.2128 34.728C50.8329 35.0695 50.5621 35.5141 50.434 36.0069C49.7588 38.7256 47.7781 40.3219 45.1334 40.19C43.9421 40.1304 42.8104 39.6542 41.9384 38.8457C41.0664 38.0373 40.5103 36.9486 40.3684 35.7721C40.2293 34.6166 40.4942 33.4487 41.1187 32.4641C41.7432 31.4795 42.6893 30.7379 43.7986 30.3637C46.2565 29.5454 48.6694 30.5873 50.0199 33.0221C50.0896 33.1585 50.1684 33.2837 50.3012 33.5095ZM64.8706 35.1304C64.862 34.1817 64.4742 33.2752 63.7927 32.6104C63.1113 31.9456 62.1918 31.577 61.2367 31.5856C60.2816 31.5942 59.369 31.9793 58.6998 32.6563C58.0305 33.3332 57.6594 34.2465 57.6681 35.1953C57.6723 35.665 57.7697 36.1294 57.9547 36.5618C58.1396 36.9941 58.4085 37.3861 58.7459 37.7153C59.0834 38.0445 59.4828 38.3044 59.9213 38.4802C60.3599 38.6561 60.8291 38.7444 61.302 38.7401C61.7749 38.7359 62.2424 38.6391 62.6776 38.4554C63.1129 38.2717 63.5075 38.0046 63.8389 37.6694C64.1703 37.3342 64.432 36.9375 64.609 36.5019C64.786 36.0662 64.8749 35.6002 64.8706 35.1304ZM45.408 31.5912C44.6988 31.5983 44.0076 31.8132 43.4209 32.2089C42.8342 32.6047 42.3782 33.1638 42.1101 33.8159C41.842 34.4681 41.7738 35.1844 41.9139 35.875C42.054 36.5655 42.3962 37.1996 42.8977 37.6978C43.3991 38.1959 44.0375 38.5359 44.7327 38.675C45.4279 38.8142 46.149 38.7464 46.8056 38.4801C47.4621 38.2138 48.0249 37.7608 48.4233 37.1781C48.8218 36.5953 49.0381 35.9086 49.0453 35.2042C49.0501 34.7284 48.9593 34.2564 48.7782 33.8159C48.5971 33.3754 48.3294 32.9752 47.9907 32.6388C47.6519 32.3023 47.249 32.0363 46.8056 31.8565C46.3621 31.6766 45.887 31.5864 45.408 31.5912Z" fill="white"/>
</svg>
