<svg width="548" height="472" viewBox="0 0 548 472" fill="none" xmlns="http://www.w3.org/2000/svg">
<path d="M540.976 355.786L228.029 291L8.33764 333.829L0 332.3V335.443L260.523 472L548 357.243V354.1L540.976 355.786Z" fill="#365F5F"/>
<path d="M0 332.443L228.029 288L548 354.243L260.523 469L0 332.443Z" fill="#165151"/>
<path d="M39 336.764L227.422 299L491 355.695L268.486 442L39 336.764Z" fill="#E8EEF2"/>
<path d="M303.431 417.545C299.08 421.38 295.532 426.041 292.993 431.256C289.009 439.991 281.414 447.81 267.628 451.234C258.462 453.516 238.728 449.887 237.961 439C239.832 429.46 248.474 430.021 256.461 422.857C267.684 415.113 274.437 397.66 280.778 380.75C283.584 373.268 306.555 354.039 311.68 357.256C313.551 358.435 307.527 376.616 306.817 391.263C306.461 398.446 315.234 406.639 303.431 417.545Z" fill="#C8856A"/>
<path d="M349.822 352.036C348.868 349.212 342.976 345.508 337.776 344.816C328.797 343.6 319.407 344.199 309.511 338.755C303.9 335.631 292.096 334.285 286.503 339.373C282.423 342.885 277.402 345.122 272.062 345.807C273.933 351.082 269.949 363.765 277.132 366.627C284.296 366.01 294.191 365.205 318.958 363.409C323.803 363.054 342.714 370.237 348.887 367.768C353.133 366.028 352.946 359.93 349.822 352.036Z" fill="#C8856A"/>
<path d="M249.691 368.611C246.929 368.66 244.258 367.624 242.252 365.725C240.247 363.826 239.065 361.216 238.962 358.456C238.86 355.696 239.843 353.005 241.702 350.962C243.561 348.919 246.148 347.687 248.905 347.53L279.882 345.229C282.607 345.133 285.263 346.095 287.294 347.914C289.325 349.733 290.573 352.268 290.776 354.986C290.979 357.705 290.122 360.397 288.384 362.498C286.646 364.599 284.162 365.945 281.453 366.255L250.476 368.518L249.691 368.611Z" fill="#C8856A"/>
<path d="M240.879 339.86C211.998 346.482 186.633 347.847 170.602 361.521C147.575 381.293 139.438 370.107 137.156 359.445C137.038 358.902 136.957 358.352 136.913 357.799C135.566 348.202 141.346 340.253 144.545 335.221C159.509 310.529 249.11 243.806 289.271 262.661C296.753 266.178 302.627 272.725 305.863 283.088C315.609 324.166 268.096 330.469 240.879 339.86Z" fill="#1A2E35"/>
<g style="mix-blend-mode:multiply">
<path d="M240.879 339.859C211.997 346.481 159.846 338.943 159.846 338.943C159.846 338.943 167.534 336.043 200.998 337.989C264.598 341.73 278.608 285.894 286.034 283.387C293.517 286.904 302.57 272.725 305.806 283.088C315.608 324.165 268.096 330.469 240.879 339.859Z" fill="#7096C3"/>
</g>
<path d="M210.968 341.6C219.984 341.899 266.449 342.909 266.449 342.909C273.931 343.377 275.334 367.227 270.602 369.097C265.383 371.174 221.406 380.134 211.435 380.564C201.464 381.116 191.467 381.035 181.506 380.321C171.457 379.669 161.474 378.224 151.652 376C147.077 374.951 143.056 372.238 140.372 368.387C137.688 364.536 136.534 359.824 137.134 355.169C137.734 350.514 140.045 346.249 143.617 343.204C147.19 340.16 151.768 338.554 156.459 338.701C156.459 338.701 202.045 341.301 210.968 341.6Z" fill="#1F373D"/>
<path d="M221.932 273.117C221.932 273.117 205.265 292.478 213.757 297.827C222.249 303.177 230.218 295.62 233.51 299.399C235.774 295.938 236.092 279.178 236.092 279.178L221.932 273.117Z" fill="#C8856A"/>
<path d="M217.238 291.038C216.434 292.179 215.648 293.208 214.807 294.256L213.535 295.808C213.159 296.21 212.809 296.635 212.487 297.08C211.514 299.233 210.883 301.524 210.617 303.87V303.983C210.609 304.145 210.57 304.304 210.501 304.451C210.432 304.598 210.335 304.73 210.215 304.839C210.095 304.949 209.955 305.033 209.803 305.089C209.65 305.144 209.488 305.169 209.326 305.161C209.164 305.154 209.005 305.115 208.858 305.046C208.711 304.977 208.579 304.88 208.469 304.76C208.36 304.64 208.275 304.5 208.22 304.347C208.165 304.195 208.14 304.033 208.147 303.87C208.101 302.503 208.151 301.134 208.297 299.774C208.404 298.349 208.681 296.943 209.12 295.584L210.822 291.843C211.309 290.702 211.795 289.504 212.207 288.382C212.336 288.023 212.534 287.694 212.79 287.412C213.047 287.13 213.356 286.901 213.701 286.739C214.046 286.576 214.419 286.483 214.8 286.465C215.18 286.447 215.561 286.504 215.92 286.633C216.278 286.762 216.608 286.96 216.89 287.217C217.172 287.473 217.401 287.783 217.563 288.127C217.726 288.472 217.818 288.846 217.837 289.226C217.855 289.607 217.798 289.988 217.669 290.346C217.554 290.594 217.41 290.826 217.238 291.038Z" fill="#C8856A"/>
<path d="M218.154 294.816L215.722 299.306L215.124 300.409C215.003 300.669 214.902 300.938 214.824 301.214C214.604 301.946 214.423 302.689 214.282 303.44C213.665 306.563 213.234 309.874 212.879 313.111C212.814 313.552 212.584 313.953 212.235 314.231C211.886 314.509 211.444 314.644 210.999 314.609C210.554 314.573 210.139 314.369 209.838 314.039C209.538 313.709 209.374 313.276 209.381 312.83C209.587 309.463 209.849 306.152 210.372 302.748C210.5 301.854 210.675 300.967 210.896 300.091C211.029 299.567 211.204 299.054 211.42 298.557L211.869 297.416L213.739 292.871V292.759C213.988 292.156 214.465 291.676 215.066 291.426C215.668 291.175 216.345 291.173 216.948 291.421C217.55 291.669 218.03 292.147 218.281 292.748C218.531 293.35 218.533 294.026 218.285 294.629L218.154 294.816Z" fill="#C8856A"/>
<path d="M222.867 296.687L218.658 306.414C218.137 307.901 217.737 309.427 217.461 310.979L216.451 316.141C216.365 316.581 216.114 316.972 215.75 317.233C215.386 317.495 214.935 317.607 214.491 317.547C214.047 317.488 213.642 317.26 213.359 316.912C213.077 316.564 212.938 316.121 212.972 315.674L213.383 310.361C213.484 308.435 213.779 306.523 214.262 304.656L217.237 294.667C217.471 293.905 217.992 293.265 218.69 292.881C219.389 292.497 220.209 292.399 220.978 292.61C221.741 292.839 222.382 293.361 222.761 294.063C223.139 294.764 223.225 295.587 222.998 296.351C222.962 296.466 222.919 296.578 222.867 296.687Z" fill="#C8856A"/>
<path d="M228.498 296.743L224.289 306.489L220.548 316.384C220.468 316.602 220.347 316.802 220.19 316.973C220.033 317.143 219.844 317.281 219.634 317.379C219.423 317.476 219.196 317.531 218.964 317.54C218.733 317.549 218.502 317.512 218.284 317.432C217.89 317.264 217.566 316.966 217.365 316.589C217.164 316.211 217.099 315.775 217.181 315.355L219.631 304.918L222.549 294.573C222.777 293.765 223.317 293.08 224.051 292.669C224.784 292.259 225.65 292.157 226.459 292.385C227.267 292.613 227.952 293.153 228.363 293.886C228.773 294.619 228.875 295.486 228.647 296.294C228.612 296.428 228.568 296.559 228.516 296.687L228.498 296.743Z" fill="#C8856A"/>
<path d="M234.802 291.207C235.155 294.332 234.978 297.494 234.278 300.56C233.998 301.884 233.492 303.149 232.781 304.301L232.202 305.087C231.515 305.971 230.966 306.955 230.574 308.005C230.405 308.449 230.073 308.813 229.646 309.021C229.218 309.23 228.728 309.268 228.273 309.127C227.97 309.017 227.7 308.829 227.49 308.583C227.28 308.338 227.138 308.042 227.076 307.724C226.935 306.079 227.192 304.424 227.824 302.898L228.199 301.851C228.226 301.627 228.238 301.402 228.236 301.177C228.317 300.683 228.349 300.181 228.33 299.681C228.209 297.317 227.814 294.976 227.151 292.704C226.886 291.711 227.025 290.654 227.539 289.765C228.053 288.876 228.899 288.227 229.891 287.962C230.884 287.696 231.941 287.836 232.83 288.35C233.719 288.864 234.368 289.71 234.633 290.702C234.701 290.866 234.757 291.035 234.802 291.207Z" fill="#C8856A"/>
<path d="M213.758 297.885C222.25 303.235 230.219 294.424 233.511 299.456C235.774 295.996 236.092 279.235 236.092 279.235L213.758 297.885Z" fill="#C8856A"/>
<path d="M277.337 174.313V174.463C274.699 202.97 270.303 218.234 270.098 218.234C266.356 225.941 255.133 259.667 240.168 281.011C240.093 281.165 239.998 281.309 239.888 281.441C238.653 283.199 237.4 284.845 236.147 286.398C236.147 281.927 222.117 272.967 216.412 279.196C216.88 251.624 223.633 251.755 229.637 224.332C231.994 213.464 239.663 200.015 243.573 189.54C252.645 165.222 263.326 130.729 269.518 119.375C281.602 97.2831 283.248 125.005 277.337 174.313Z" fill="#025F5F"/>
<path d="M277.34 174.463C274.703 202.97 270.307 218.234 270.101 218.234C266.36 225.941 255.136 259.667 240.172 281.011C244.287 275.605 241.238 248.949 240.845 232.694C240.452 216.439 265.462 189.671 265.462 189.671C265.462 189.671 272.421 177.437 277.34 174.463Z" fill="#00504F"/>
<path d="M387.236 147.789C386.463 156.943 385.553 165.572 384.505 173.678C378.201 222.706 366.884 254.112 353.828 278.074C353.061 279.515 250.553 284.416 261.029 254.842C275.301 219.17 260.28 160.939 268.997 124.519C270.363 109.761 292.454 97.4708 319.334 100.37C384.486 107.385 387.236 118.608 387.236 147.789Z" fill="#025F5F"/>
<path d="M384.484 173.641C378.18 222.669 366.863 254.076 353.806 278.038C353.039 279.478 352.216 280.881 351.412 282.209C348.382 277.252 312.373 218.273 304.779 212.998C296.791 207.555 299.99 191.262 299.99 191.262L308.688 176.877C308.688 176.877 339.852 186.024 349.841 186.23C359.83 186.436 351.973 145.283 351.973 145.283C351.973 145.283 368.528 159.687 384.484 173.641Z" fill="#00504F"/>
<path d="M356.463 61.7425C344.417 87.0326 348.569 71.563 323.728 68.7571C298.887 65.9513 285.606 88.5852 283.361 60.6575C280.724 28.0348 285.83 1.52879 309.848 5.06417C346.081 10.4701 373.205 26.688 356.463 61.7425Z" fill="#4A3129"/>
<path d="M346.083 70.1423L348.103 105.346C348.311 107.697 348.045 110.066 347.32 112.311C346.596 114.557 345.427 116.635 343.884 118.42C342.342 120.206 340.456 121.664 338.339 122.707C336.222 123.75 333.917 124.357 331.561 124.492C329.205 124.628 326.846 124.288 324.624 123.494C322.402 122.701 320.361 121.469 318.624 119.871C316.887 118.274 315.489 116.344 314.511 114.196C313.534 112.048 312.999 109.726 312.936 107.367C312.899 106.694 312.899 106.019 312.936 105.346L314.975 70.1423C315.213 66.1787 316.956 62.4555 319.847 59.7333C322.737 57.0111 326.558 55.4951 330.529 55.4951C334.5 55.4951 338.321 57.0111 341.211 59.7333C344.102 62.4555 345.845 66.1787 346.083 70.1423Z" fill="#B37B64"/>
<path d="M356.464 61.7438C354.369 83.5172 337.441 109.649 313.984 109.649C283.269 109.649 283.063 84.677 283.269 53.532C283.531 16.794 304.65 11.4441 324.852 13.7449C345.054 16.0457 359.177 33.0305 356.464 61.7438Z" fill="#C8856A"/>
<path d="M283.287 56.7297C283.287 56.7297 286.728 22.0867 290.769 25.9588C297.447 32.2626 309.924 31.6827 333.455 33.1418C347.821 34.0397 329.059 62.9026 339.254 69.805C344.567 75.5663 346.736 88.8474 346.736 88.8474C346.736 88.8474 359.344 73.677 361.701 48.1438C365.648 6.50485 309.736 5.12064 309.736 5.12064C309.736 5.12064 277.75 1.6788 283.287 56.7297Z" fill="#4A3129"/>
<path d="M303.927 115.745L268.887 119.676C267.203 119.864 265.991 121.382 266.18 123.066L272.12 176.027C272.309 177.71 273.827 178.922 275.511 178.733L310.551 174.803C312.235 174.614 313.447 173.096 313.258 171.412L307.318 118.452C307.129 116.768 305.611 115.556 303.927 115.745Z" fill="#0B2126"/>
<path d="M274.609 125.511C274.651 125.922 274.57 126.336 274.377 126.702C274.183 127.067 273.886 127.367 273.523 127.564C273.159 127.761 272.746 127.846 272.334 127.808C271.923 127.771 271.531 127.612 271.21 127.353C270.888 127.093 270.65 126.745 270.526 126.35C270.402 125.956 270.398 125.534 270.513 125.137C270.629 124.74 270.859 124.386 271.175 124.12C271.491 123.853 271.879 123.687 272.29 123.64C272.845 123.583 273.4 123.747 273.835 124.097C274.27 124.448 274.548 124.956 274.609 125.511Z" fill="#355056"/>
<path d="M273.859 129.234C273.867 129.305 273.861 129.377 273.841 129.446C273.82 129.515 273.786 129.579 273.741 129.635C273.696 129.69 273.64 129.736 273.577 129.77C273.514 129.804 273.445 129.825 273.373 129.832C273.3 129.843 273.226 129.838 273.155 129.819C273.084 129.8 273.018 129.767 272.96 129.722C272.902 129.676 272.855 129.619 272.819 129.555C272.784 129.49 272.763 129.419 272.756 129.346C272.763 129.212 272.817 129.085 272.91 128.988C273.002 128.891 273.126 128.83 273.26 128.816C273.393 128.803 273.527 128.837 273.637 128.914C273.747 128.991 273.826 129.104 273.859 129.234Z" fill="#B6C9CE"/>
<path d="M352.159 74.3512C349.933 80.6738 345.238 84.789 341.703 83.517C338.168 82.245 337.083 76.1283 339.327 69.8057C341.572 63.4832 346.248 59.3679 349.784 60.6212C353.319 61.8745 354.404 68.01 352.159 74.3512Z" fill="#C8856A"/>
<path d="M309.1 180.114C309.1 180.114 306.911 169.414 299.354 167.544C291.797 165.673 278.292 172.557 284.109 180.114C286.254 183.169 289.132 185.637 292.479 187.29C295.826 188.944 299.534 189.731 303.264 189.579C310.035 189.542 309.1 180.114 309.1 180.114Z" fill="#C8856A"/>
<path d="M298.026 175.1C297.783 171.359 297.633 167.861 297.652 164.12C297.617 162.012 297.837 159.908 298.307 157.853C299.02 155.935 299.922 154.093 301 152.354C301.18 152.066 301.414 151.817 301.69 151.62C301.967 151.424 302.279 151.284 302.609 151.21C302.94 151.135 303.282 151.126 303.616 151.185C303.95 151.243 304.269 151.367 304.554 151.549C305.007 151.841 305.358 152.265 305.559 152.764C305.76 153.264 305.801 153.813 305.677 154.336L305.527 154.935C305.179 156.411 304.947 157.912 304.835 159.424C304.826 160.858 304.933 162.291 305.153 163.708C305.602 167.019 306.257 170.479 307.024 173.809C307.202 174.411 307.254 175.043 307.176 175.666C307.098 176.289 306.892 176.889 306.571 177.428C306.249 177.967 305.82 178.434 305.309 178.799C304.799 179.164 304.218 179.419 303.604 179.549C302.99 179.678 302.355 179.679 301.741 179.552C301.126 179.424 300.545 179.17 300.033 178.807C299.522 178.443 299.091 177.978 298.768 177.44C298.445 176.901 298.237 176.302 298.157 175.68C298.082 175.549 298.045 175.306 298.026 175.1Z" fill="#C8856A"/>
<path d="M291.836 173.79C291.686 173.548 291.548 173.298 291.425 173.041L291.313 172.798L291.125 172.387L290.807 171.676L290.321 170.292L289.535 167.561C289.161 165.69 288.619 164.1 288.095 161.949C287.171 158.131 286.546 154.247 286.225 150.333C286.169 149.807 286.313 149.279 286.627 148.854C286.942 148.429 287.404 148.137 287.923 148.036C288.442 147.935 288.98 148.032 289.431 148.308C289.882 148.585 290.213 149.02 290.359 149.528C291.481 153.045 292.697 156.636 294.1 160.078L296.344 165.335L297.261 168.047L297.635 169.394L297.766 170.048V170.31C297.697 170.162 297.609 170.024 297.504 169.899C298 170.643 298.18 171.554 298.005 172.431C297.83 173.308 297.313 174.079 296.569 174.575C296.2 174.821 295.787 174.992 295.353 175.077C294.918 175.163 294.471 175.163 294.037 175.076C293.16 174.901 292.388 174.384 291.892 173.64L291.836 173.79Z" fill="#C8856A"/>
<path d="M286.766 175.044L284.222 168.965L282.988 165.953C282.795 165.52 282.626 165.077 282.483 164.625L281.978 163.166C281.285 161.146 280.612 159.107 280.107 157.012C279.42 154.811 278.987 152.539 278.816 150.24C278.793 149.685 278.979 149.141 279.337 148.716C279.695 148.291 280.198 148.015 280.749 147.942C281.3 147.869 281.858 148.005 282.314 148.323C282.77 148.641 283.09 149.118 283.212 149.66V149.848C283.654 151.671 284.281 153.445 285.083 155.141C285.943 157.012 286.953 158.77 287.851 160.585L288.599 161.969C288.836 162.484 289.105 162.984 289.404 163.465L291.012 166.009L294.174 171.079V171.191C294.514 171.665 294.753 172.203 294.877 172.773C295 173.343 295.006 173.932 294.893 174.504C294.78 175.076 294.55 175.619 294.219 176.099C293.888 176.579 293.462 176.986 292.967 177.295C292.473 177.604 291.92 177.808 291.343 177.895C290.767 177.981 290.178 177.949 289.615 177.799C289.051 177.65 288.524 177.386 288.066 177.025C287.609 176.664 287.23 176.212 286.953 175.699C286.879 175.484 286.817 175.266 286.766 175.044Z" fill="#C8856A"/>
<path d="M284.596 176.577L278.984 166.999C277.966 165.354 277.059 163.642 276.272 161.874C275.486 160.134 274.794 158.395 274.14 156.599C273.984 156.184 273.99 155.726 274.158 155.315C274.326 154.905 274.643 154.573 275.045 154.386C275.447 154.2 275.904 154.172 276.326 154.308C276.748 154.444 277.103 154.735 277.32 155.121C278.217 156.655 279.19 158.245 280.181 159.723C281.165 161.185 282.246 162.578 283.418 163.894L290.582 172.331C291.024 173.089 291.184 173.979 291.036 174.844C290.888 175.709 290.441 176.495 289.772 177.063C289.103 177.632 288.255 177.947 287.378 177.954C286.5 177.961 285.648 177.659 284.97 177.1C284.833 176.935 284.708 176.76 284.596 176.577Z" fill="#C8856A"/>
<path d="M285.005 180.824C282.82 179.174 280.768 177.354 278.87 175.381C278.332 174.799 277.844 174.173 277.411 173.51C277.049 172.904 276.718 172.28 276.419 171.64C275.821 170.405 275.297 169.208 274.792 167.898C274.651 167.458 274.678 166.981 274.868 166.56C275.058 166.139 275.398 165.802 275.821 165.616C276.212 165.467 276.644 165.463 277.038 165.603C277.432 165.744 277.763 166.02 277.972 166.383C278.571 167.412 279.263 168.478 279.955 169.47C280.523 170.401 281.251 171.224 282.106 171.902C284.01 173.406 286.03 174.757 288.148 175.942C288.808 176.321 289.29 176.948 289.488 177.682C289.686 178.417 289.584 179.201 289.205 179.861C288.825 180.521 288.199 181.003 287.464 181.201C286.729 181.399 285.946 181.297 285.286 180.918L285.005 180.824Z" fill="#C8856A"/>
<path d="M396.924 207.311C395.933 191.711 394.062 140.626 382.502 122.257C375.281 110.809 340.115 135.351 353.789 172.201C358.315 184.397 359.269 189.616 360.111 204.001C350.964 200.634 322.793 177.102 308.67 176.859C304.349 178.729 296.998 189.129 301.282 195.04C316.115 215.448 363.89 254.225 385.158 241.973C392.435 237.839 397.017 227.308 396.924 207.311Z" fill="#025F5F"/>
<path d="M366.267 303.851C362.189 353.44 294.437 345.976 296.12 300.989C297.224 282.47 298.664 264.494 297.635 245.152C297.29 237.685 296.541 230.241 295.391 222.855C308.934 164.25 351.321 231.609 363.517 276.802C366.659 287.876 367.763 297.622 366.267 303.851Z" fill="#1F373D"/>
<g style="mix-blend-mode:multiply">
<path d="M366.265 303.851C362.187 353.44 294.435 345.976 296.119 300.989C297.222 282.471 298.663 264.494 297.634 245.153L331.304 224.071C331.304 224.071 332.726 299.96 341.948 304.3C361.607 313.559 366.265 289.018 363.553 276.803C366.658 287.876 367.762 297.622 366.265 303.851Z" fill="#ABC3E4"/>
</g>
<path d="M331.248 218.535C331.678 263.054 315.461 378.356 307.174 386.68C304.462 391.918 279.115 389.393 278.33 383.332C276.197 367.058 275.599 206.9 306.388 198.726C318.659 195.695 330.294 205.235 331.248 218.535Z" fill="#1F373D"/>
<path d="M361 35.9312C361 35.9312 357.389 45.1601 325.057 42.5276C292.725 39.8951 285 28.9111 285 28.9111L289.021 0.57351C289.021 0.57351 317.816 -2.75498 338.812 6.62531C359.809 16.0056 359.995 19.4703 359.995 19.4703L361 35.9312Z" fill="#E2E2E2"/>
<path d="M288.977 0.656462C288.977 0.656462 283.848 5.95646 297.098 11.055C310.347 16.1535 327.964 19.3614 338.631 21.2676C349.298 23.1737 354.984 23.1737 357.214 22.8173C357.851 22.6933 358.435 22.4273 358.905 22.0476C359.374 21.668 359.711 21.189 359.879 20.662C360.047 20.135 360.04 19.5798 359.859 19.0559C359.677 18.532 359.329 18.059 358.85 17.6877C356.471 15.1927 340.917 5.95646 321.163 2.19067C301.409 -1.57512 288.977 0.656462 288.977 0.656462Z" fill="#F8F8F8"/>
</svg>
